<svg width="30" height="30" viewBox="0 0 30 30" fill="none" xmlns="http://www.w3.org/2000/svg">
<g clip-path="url(#clip0_2676_2615)">
<path d="M28.4912 3.85733L27.3925 2.75856C25.3807 0.74683 22.1191 0.74683 20.1074 2.75851C20.1074 2.75851 20.1074 2.75851 20.1073 2.75856L6.06707 16.7988C4.64457 18.2213 4.64457 20.5277 6.06707 21.9502L6.79957 22.6827C8.2485 24.0399 10.502 24.0399 11.9509 22.6827L22.3173 12.3163C22.5656 12.0764 22.5725 11.6808 22.3327 11.4325C22.0929 11.1842 21.6972 11.1773 21.4489 11.4171C21.4437 11.4222 21.4386 11.4273 21.4336 11.4325L11.0671 21.7989C10.1151 22.6897 8.6354 22.6897 7.68335 21.7989L6.95086 21.0664C6.01645 20.1321 6.01633 18.6172 6.95062 17.6828C6.95068 17.6828 6.9508 17.6827 6.95086 17.6826L20.991 3.64229C22.536 2.17086 24.9638 2.17086 26.5086 3.64229L27.6074 4.74106C29.1304 6.26494 29.1304 8.73476 27.6074 10.2586L11.9509 25.9152C9.83776 28.0275 6.41261 28.0275 4.2995 25.9152L2.83446 24.4514C0.722115 22.3383 0.722115 18.9131 2.83446 16.8L14.8172 4.81735C15.0655 4.57752 15.0724 4.18189 14.8326 3.93357C14.5927 3.6853 14.1971 3.67839 13.9488 3.91821C13.9436 3.92325 13.9385 3.92835 13.9334 3.93357L1.95073 15.915C-0.650234 18.5159 -0.650234 22.7329 1.95067 25.3338C1.95067 25.3339 1.95073 25.3339 1.95073 25.3339L3.41578 26.799C6.01668 29.3999 10.2336 29.4 12.8346 26.7991C12.8346 26.799 12.8347 26.799 12.8347 26.799L28.4912 11.1424C30.5029 9.13075 30.503 5.86907 28.4912 3.85733C28.4912 3.85733 28.4912 3.85733 28.4912 3.85733Z" fill="#CFD8DC"/>
<path d="M8.12464 28.7503C6.35719 28.7541 4.66146 28.0516 3.41456 26.799L1.95075 25.3352C-0.650211 22.7343 -0.65027 18.5173 1.95069 15.9164L1.95075 15.9163L13.9335 3.93357C14.1733 3.6853 14.569 3.67839 14.8173 3.91821C15.0655 4.15804 15.0725 4.55367 14.8326 4.802C14.8276 4.80721 14.8225 4.81231 14.8173 4.81735L2.83454 16.7988C0.722195 18.9119 0.722195 22.3371 2.83454 24.4502L4.29958 25.9152C6.41268 28.0276 9.83784 28.0276 11.9509 25.9152L27.6075 10.2587C29.1305 8.73482 29.1305 6.26499 27.6075 4.74112L26.5087 3.64235C24.9638 2.17092 22.536 2.17092 20.9911 3.64235L6.95082 17.6825C6.01641 18.6168 6.01629 20.1317 6.95058 21.0661C6.95064 21.0662 6.95076 21.0663 6.95082 21.0663L7.68331 21.7988C8.63536 22.6896 10.115 22.6896 11.0671 21.7988L21.4335 11.4324C21.6733 11.1841 22.069 11.1772 22.3173 11.4171C22.5655 11.6569 22.5724 12.0525 22.3326 12.3008C22.3276 12.3061 22.3225 12.3112 22.3173 12.3162L11.9509 22.6827C10.502 24.0399 8.24851 24.0399 6.79958 22.6827L6.06709 21.9502C4.64459 20.5277 4.64459 18.2213 6.06709 16.7988L20.1073 2.75856C22.1191 0.74683 25.3807 0.74683 27.3924 2.75851C27.3924 2.75851 27.3924 2.75851 27.3925 2.75856L28.4912 3.85733C30.503 5.86907 30.503 9.13069 28.4913 11.1424C28.4913 11.1424 28.4913 11.1424 28.4912 11.1425L12.8347 26.799C11.5878 28.0516 9.8921 28.7541 8.12464 28.7503Z" fill="#40A798"/>
</g>
<defs>
<clipPath id="clip0_2676_2615">
<rect width="30" height="30" fill="white"/>
</clipPath>
</defs>
</svg>
