<svg width="74" height="81" viewBox="0 0 74 81" fill="none" xmlns="http://www.w3.org/2000/svg">
<path d="M66.4615 28C66.4615 45.6731 37.2308 80 37.2308 80C37.2308 80 8 45.6731 8 28C8 10.3269 19.6195 0 37.2308 0C54.8421 0 66.4615 10.3269 66.4615 28Z" fill="#523F79"/>
<path d="M0 80L74 80" stroke="#523F79" stroke-width="2"/>
<path d="M14 29.2307C14 16.4857 24.3319 6.15381 37.0769 6.15381C49.822 6.15381 60.1538 16.4857 60.1538 29.2307C60.1538 41.9758 49.822 52.3077 37.0769 52.3077C24.3319 52.3077 14 41.9758 14 29.2307Z" fill="#807BE4"/>
<path d="M30.9452 47.6567C33.5355 47.1351 36.0888 46.4214 38.6896 45.972C39.9918 45.7517 41.0403 45.357 42.1416 44.5499C44.1786 43.0591 45.916 41.2687 47.7574 39.5911C49.6341 37.866 49.5301 37.1963 47.4015 35.598C46.9662 35.2667 45.9002 34.9337 46.3689 34.4244C47.8297 32.842 46.057 31.834 45.6306 30.9053C45.2535 30.0912 45.0438 29.2365 45.3169 28.7449C46.2949 26.9757 45.5019 25.5871 44.5451 24.3077C43.6887 23.1658 43.7557 22.3094 44.8129 21.4741C46.1169 20.445 45.6746 19.3613 44.5451 18.8626C41.6024 17.5656 42.7865 15.6677 43.687 13.8773C43.9742 13.3011 44.5345 12.7425 43.842 12.3989C42.6033 11.7839 41.6024 10.5292 39.9795 10.8094C38.0289 11.1407 36.2474 11.7521 36.0694 14.08C35.9566 15.5126 34.5998 16.3268 33.9936 16.0924C31.8298 15.2501 28.8571 17.2131 27.3347 14.1135C26.9999 13.435 26.1082 13.5689 25.4228 14.3549C24.5065 15.3946 25.6025 15.5267 26.0007 15.8016C26.843 16.3814 27.754 16.9136 28.7126 17.2572C30.154 17.7682 31.0351 18.5101 31.0192 20.1948C31.0034 21.7825 32.0271 23.1676 31.5373 24.995C31.2448 26.0875 32.6668 27.3193 34.0765 27.751C35.25 28.1105 35.0298 29.0357 34.9328 29.8833C34.8782 30.3608 34.6051 30.3731 34.3214 30.0278C34.2562 29.7828 34.2333 29.4762 33.8862 29.6418C33.7505 29.7053 33.6359 29.8745 33.5743 30.0242C32.6615 32.2093 30.8183 33.4446 28.984 34.7628C26.6034 36.4685 24.6175 38.4316 26.5963 41.7375C26.8131 42.1023 26.5999 42.7472 26.5206 43.26C26.2122 45.2354 28.9734 48.0479 30.9452 47.6567Z" fill="#F2F5FA"/>
<mask id="mask0_2676_1882" style="mask-type:alpha" maskUnits="userSpaceOnUse" x="25" y="10" width="25" height="38">
<path d="M30.9452 47.6567C33.5355 47.1351 36.0888 46.4214 38.6896 45.972C39.9918 45.7517 41.0403 45.357 42.1416 44.5499C44.1786 43.0591 45.916 41.2687 47.7574 39.5911C49.6341 37.866 49.5301 37.1963 47.4015 35.598C46.9662 35.2667 45.9002 34.9337 46.3689 34.4244C47.8297 32.842 46.057 31.834 45.6306 30.9053C45.2535 30.0912 45.0438 29.2365 45.3169 28.7449C46.2949 26.9757 45.5019 25.5871 44.5451 24.3077C43.6887 23.1658 43.7557 22.3094 44.8129 21.4741C46.1169 20.445 45.6746 19.3613 44.5451 18.8626C41.6024 17.5656 42.7865 15.6677 43.687 13.8773C43.9742 13.3011 44.5345 12.7425 43.842 12.3989C42.6033 11.7839 41.6024 10.5292 39.9795 10.8094C38.0289 11.1407 36.2474 11.7521 36.0694 14.08C35.9566 15.5126 34.5998 16.3268 33.9936 16.0924C31.8298 15.2501 28.8571 17.2131 27.3347 14.1135C26.9999 13.435 26.1082 13.5689 25.4228 14.3549C24.5065 15.3946 25.6025 15.5267 26.0007 15.8016C26.843 16.3814 27.754 16.9136 28.7126 17.2572C30.154 17.7682 31.0351 18.5101 31.0192 20.1948C31.0034 21.7825 32.0271 23.1676 31.5373 24.995C31.2448 26.0875 32.6668 27.3193 34.0765 27.751C35.25 28.1105 35.0298 29.0357 34.9328 29.8833C34.8782 30.3608 34.6051 30.3731 34.3214 30.0278C34.2562 29.7828 34.2333 29.4762 33.8862 29.6418C33.7505 29.7053 33.6359 29.8745 33.5743 30.0242C32.6615 32.2093 30.8183 33.4446 28.984 34.7628C26.6034 36.4685 24.6175 38.4316 26.5963 41.7375C26.8131 42.1023 26.5999 42.7472 26.5206 43.26C26.2122 45.2354 28.9734 48.0479 30.9452 47.6567Z" fill="black"/>
</mask>
<g mask="url(#mask0_2676_1882)">
<path d="M36.5503 4.8615L36.5504 35.9666L25.2617 35.9666L25.2617 40.0056L36.5504 40.0056L36.5504 51.4492L37.5574 52.123L39.5275 52.123L40.5345 51.4492L40.5345 40.0056L50.4951 40.0056L51.1066 39.2029L51.1066 36.6148L50.4951 35.9666L40.5345 35.9666L40.5345 4.8615L36.5503 4.8615Z" fill="#5055A0"/>
</g>
</svg>
