<svg width="74" height="81" viewBox="0 0 74 81" fill="none" xmlns="http://www.w3.org/2000/svg">
<path d="M66.4615 28C66.4615 45.6731 37.2308 80 37.2308 80C37.2308 80 8 45.6731 8 28C8 10.3269 19.6195 0 37.2308 0C54.8421 0 66.4615 10.3269 66.4615 28Z" fill="#523F79"/>
<path d="M0 80L74 80" stroke="#523F79" stroke-width="2"/>
<path d="M14 29.2307C14 16.4857 24.3319 6.15381 37.0769 6.15381C49.822 6.15381 60.1538 16.4857 60.1538 29.2307C60.1538 41.9758 49.822 52.3077 37.0769 52.3077C24.3319 52.3077 14 41.9758 14 29.2307Z" fill="#807BE4"/>
<path d="M35.4928 20.1955C35.6193 20.0363 35.8376 19.9788 35.9841 19.8377C36.3415 19.4929 36.0801 18.852 35.6576 18.5906C35.2353 18.3292 34.713 18.2878 34.2589 18.0855C33.8051 17.8836 33.395 17.3816 33.5868 16.9241C33.8685 16.3179 34.3226 16.3877 34.4623 15.9477C34.6018 15.5074 34.1203 15.0511 34.4646 14.3584C34.8088 13.6657 35.7243 12.9859 35.4122 12.2614C35.1483 11.7473 34.4398 11.6681 33.8708 11.7743C33.3017 11.8805 32.7189 12.1036 32.1614 11.947C31.6887 11.8141 31.3329 11.4321 30.9033 11.1946C29.6926 10.525 26.9401 10.6165 26.9401 11.6786C26.9401 13.2082 27.639 13.4251 27.7936 13.8513C28.1807 14.9164 28.5663 16.1077 28.1198 17.1495C27.9305 17.5917 27.606 17.9605 27.2871 18.321L24.7628 21.1741C24.7096 21.2344 24.6273 21.2595 24.5493 21.2403C23.6991 21.0321 22.716 21.6569 22.5802 22.5285C22.423 23.535 22.6681 24.1091 22.3619 24.7587C22.0557 25.4086 20.4615 26.3157 20.4615 26.9442C20.4615 29.0533 24.589 29.6457 24.8555 30.6437C25.0893 32.0117 25.3234 33.3796 25.5575 34.7475C26.0536 37.6471 25.8829 36.8732 29.6453 46.9863C29.9332 47.7598 30.3436 47.9345 30.9267 47.3263C32.3144 45.8789 33.7646 44.3132 34.1288 42.3439C34.3051 41.3895 34.2099 40.4018 34.3699 39.4446C34.5297 38.4871 35.0398 37.4879 35.9596 37.1713C36.3531 37.0361 36.7965 37.0344 37.15 36.8158C37.49 36.6054 37.6858 36.2324 37.8923 35.8904C38.7394 34.4898 40.0265 33.3582 41.5262 32.6965C41.7893 32.5804 42.0747 32.466 42.2364 32.2286C42.4043 31.9821 42.3992 31.6598 42.497 31.3781C42.7409 30.677 43.7266 30.3933 44.3314 30.7953C44.4199 30.8542 44.5376 30.8435 44.6109 30.7666C44.9061 30.457 45.1528 30.1015 45.3396 29.7172C45.3779 29.6383 45.3689 29.5434 45.3112 29.4772C44.3799 28.4104 44.1931 26.9261 44.4844 26.6842C44.9297 26.314 47.0084 26.3881 46.7856 26.9064C46.3537 27.9112 48.076 27.8988 48.0476 29.4237C48.0366 30.0054 48.9428 31.4452 49.7572 30.8418C50.5716 30.2384 50.4871 28.0405 51.179 26.7588C52.3444 24.6004 52.7703 23.6339 53.6554 23.0339C53.9782 22.815 53.6453 19.5814 52.9249 19.4307C52.2046 19.2799 47.6763 21.131 47.4535 21.353C47.2309 21.5752 47.2324 22.3953 47.0462 22.5034C46.8597 22.6119 45.5931 22.8671 45.2241 22.7395C44.8554 22.6116 44.317 21.4527 43.51 21.662C42.7026 21.8713 42.9995 23.204 42.7026 23.3522C42.4057 23.5001 40.5242 23.53 39.4884 22.9023C39.2295 22.7454 38.974 22.5643 38.6768 22.5043C38.3853 22.4454 38.0847 22.5094 37.7875 22.5158C37.0055 22.5333 34.6742 21.2265 35.4928 20.1955Z" fill="#6FE8C8"/>
<path d="M44.4841 26.6837C44.4852 26.6828 44.4866 26.682 44.4878 26.6811C44.1193 26.3755 42.6232 26.3763 42.253 26.6837C41.9527 26.9335 42.1612 28.5071 43.1725 29.5787C42.9531 30.0767 42.6339 30.5308 42.2395 30.9066C41.6603 30.3497 40.5296 30.6199 40.2659 31.3779C40.1682 31.6596 40.173 31.9816 40.0051 32.2284C39.8437 32.4658 39.5583 32.5802 39.2952 32.6963C37.7954 33.358 36.508 34.4896 35.6612 35.8902C35.4548 36.2322 35.259 36.6049 34.919 36.8153C34.5654 37.0342 34.1217 37.0356 33.7285 37.1711C32.8087 37.4874 32.2986 38.4869 32.1389 39.4444C31.9788 40.4016 32.0741 41.389 31.8977 42.3434C31.6011 43.9477 30.5839 45.2838 29.4669 46.5066C29.5252 46.6636 29.5847 46.8233 29.6452 46.9858C29.9331 47.7597 30.3436 47.9343 30.9267 47.3261C32.3144 45.8787 33.7645 44.313 34.1288 42.3434C34.3051 41.389 34.2099 40.4016 34.3699 39.4444C34.5296 38.4869 35.0398 37.4877 35.9596 37.1711C36.3531 37.0356 36.7965 37.0342 37.15 36.8153C37.49 36.6049 37.6858 36.2322 37.8923 35.8902C38.7394 34.4896 40.0265 33.358 41.5262 32.6963C41.7894 32.5802 42.0747 32.4658 42.2364 32.2284C42.4043 31.9816 42.3992 31.6596 42.497 31.3779C42.7409 30.6768 43.7266 30.3931 44.3314 30.7951C44.4199 30.8539 44.5376 30.8432 44.6109 30.7663C44.9061 30.4565 45.1529 30.1012 45.3396 29.717C45.3779 29.6381 45.3689 29.5429 45.3112 29.477C44.3796 28.4099 44.1931 26.9256 44.4841 26.6837Z" fill="#6FE8C8"/>
<path d="M53.6555 23.0341C53.0977 23.4113 52.7227 23.9353 52.2289 24.8102H22.3357C22.3447 24.7933 22.3534 24.7761 22.3616 24.7589C22.6681 24.1091 22.4227 23.5347 22.5805 22.5282C22.716 21.6566 23.6988 21.0318 24.5496 21.2399C24.6276 21.2591 24.7099 21.234 24.7631 21.1737C25.6045 20.223 26.4457 19.272 27.2871 18.321C27.6063 17.9607 27.9306 17.5913 28.1201 17.1494C28.5663 16.1079 28.181 14.9163 27.7936 13.8515C27.639 13.425 26.9398 13.2081 26.9398 11.6784C26.9398 10.617 29.6923 10.5246 30.9036 11.1948C31.3329 11.432 31.689 11.8145 32.1614 11.9466C32.7189 12.1035 33.302 11.8804 33.8711 11.7742C34.4398 11.668 35.1486 11.7475 35.4128 12.2616C35.7244 12.9861 34.8088 13.6658 34.4646 14.3583C34.1201 15.0515 34.6021 15.5076 34.4623 15.9482C34.3223 16.3879 33.8688 16.3181 33.5868 16.9243C33.395 17.3812 33.8049 17.8835 34.2592 18.0855C34.7131 18.2877 35.235 18.3291 35.6582 18.5905C36.0804 18.8522 36.3416 19.4934 35.9838 19.8373C35.8373 19.9793 35.6196 20.0365 35.4931 20.1954C34.6742 21.2264 37.0058 22.5332 37.7873 22.5155C38.0847 22.5087 38.3853 22.4448 38.6769 22.5042C38.9743 22.5645 39.2293 22.7451 39.489 22.9025C40.5243 23.5296 42.4057 23.4997 42.7024 23.3521C42.9998 23.2042 42.7024 21.8715 43.51 21.6619C44.3168 21.4523 44.8554 22.6113 45.2242 22.7391C45.5932 22.867 46.8594 22.6113 47.0462 22.5036C47.2321 22.3952 47.2307 21.5749 47.4538 21.3529C47.6761 21.1306 52.2044 19.2793 52.925 19.43C53.645 19.581 53.9783 22.8149 53.6555 23.0341Z" fill="#FFB300"/>
<path d="M33.1817 12.2616C33.4933 12.9858 32.5778 13.6656 32.2335 14.3583C31.889 15.0513 32.371 15.5073 32.2313 15.9479C32.0913 16.3879 31.6377 16.3181 31.356 16.9243C31.1639 17.3812 31.5738 17.8835 32.0282 18.0855C32.482 18.2874 33.004 18.3291 33.4271 18.5906C33.8497 18.852 34.1105 19.4934 33.7528 19.8371C33.6063 19.9791 33.3885 20.0362 33.262 20.1951C32.4434 21.2264 34.7748 22.5332 35.5565 22.5155C35.854 22.5087 36.1543 22.4448 36.4458 22.5042C36.7433 22.5645 36.9982 22.7451 37.258 22.9026C38.2932 23.5296 40.1747 23.4998 40.4713 23.3519C40.4956 23.34 40.5156 23.3192 40.5327 23.2927C40.1536 23.2082 39.7862 23.0826 39.489 22.9026C39.2293 22.7451 38.9744 22.5645 38.6769 22.5042C38.3853 22.4448 38.0848 22.5087 37.7873 22.5155C37.0058 22.5332 34.6742 21.2264 35.4931 20.1951C35.6196 20.0362 35.8373 19.9791 35.9838 19.8371C36.3416 19.4931 36.0807 18.852 35.6582 18.5906C35.2351 18.3291 34.7131 18.2874 34.2593 18.0855C33.8049 17.8835 33.395 17.3812 33.5868 16.9243C33.8688 16.3181 34.3224 16.3879 34.4624 15.9479C34.6021 15.5073 34.1201 15.0513 34.4646 14.3583C34.8089 13.6659 35.7244 12.9861 35.4128 12.2616C35.1486 11.7475 34.4398 11.668 33.8711 11.7742C33.5601 11.8323 33.2451 11.925 32.9322 11.9717C33.0344 12.0472 33.1203 12.1421 33.1817 12.2616Z" fill="#FFA000"/>
<path d="M52.9251 19.4299C52.6699 19.3764 51.9372 19.5744 51.087 19.862C51.5233 20.7843 51.6808 22.8599 51.4245 23.034C50.8667 23.4112 50.4917 23.9351 49.9979 24.8101H52.229C52.7228 23.9351 53.0978 23.4115 53.6555 23.034C53.9784 22.8148 53.6451 19.5809 52.9251 19.4299Z" fill="#FFA000"/>
<path d="M52.2289 24.8099C51.9396 25.324 51.6103 25.9601 51.179 26.7587C50.4875 28.0402 50.5714 30.2377 49.757 30.8409C48.9429 31.4448 48.0369 30.0045 48.0474 29.4236C48.0764 27.8982 46.3541 27.9109 46.7854 26.9058C47.0085 26.3872 44.9298 26.3137 44.4844 26.6835C44.1934 26.9255 44.3796 28.4098 45.3112 29.4769C45.369 29.5431 45.378 29.638 45.3394 29.7169C45.1529 30.1011 44.9061 30.4561 44.6115 30.7659C44.5379 30.8428 44.4202 30.8535 44.3317 30.7947C43.7266 30.3924 42.7407 30.6766 42.4973 31.3775C42.399 31.6598 42.4043 31.9815 42.2362 32.228C42.0748 32.4657 41.7891 32.5801 41.5268 32.6961C40.0268 33.3581 38.7394 34.4895 37.8923 35.8901C37.8202 36.0095 37.7495 36.1321 37.6729 36.2509H25.8302C25.7395 35.823 25.6637 35.3701 25.5572 34.7472C25.3237 33.379 25.0896 32.0111 24.8552 30.6434C24.589 29.6456 20.4615 29.0529 20.4615 26.9435C20.4615 26.3314 21.9743 25.4547 22.3357 24.8099H52.2289Z" fill="#F5F5F5"/>
<path d="M44.4841 26.6837C44.4852 26.6828 44.4866 26.682 44.4877 26.6811C44.1196 26.3755 42.6232 26.3763 42.253 26.6837C41.9527 26.9332 42.1609 28.5068 43.1722 29.579C42.953 30.0767 42.6339 30.5306 42.2398 30.9063C41.6603 30.3494 40.5293 30.6199 40.2659 31.3773C40.1679 31.6599 40.1729 31.9813 40.005 32.2281C39.8436 32.4658 39.558 32.5802 39.2954 32.6963C37.7954 33.358 36.508 34.4896 35.6609 35.8899C35.5888 36.0096 35.5184 36.1322 35.4418 36.2511H37.6728C37.7495 36.1322 37.8202 36.0096 37.8923 35.8899C38.7394 34.4896 40.0265 33.358 41.5265 32.6963C41.7891 32.5802 42.0747 32.4658 42.2361 32.2281C42.4043 31.9816 42.3989 31.6599 42.497 31.3773C42.7406 30.6765 43.7266 30.3925 44.3317 30.7948C44.4201 30.8537 44.5379 30.843 44.6111 30.7658C44.9061 30.4562 45.1526 30.1012 45.3393 29.717C45.3776 29.6381 45.3686 29.5429 45.3109 29.477C44.3796 28.4099 44.1931 26.9256 44.4841 26.6837Z" fill="#EBE3D4"/>
<path d="M49.9979 24.8099C49.7086 25.324 49.3793 25.9601 48.948 26.7587C48.4922 27.603 48.373 28.8447 48.1122 29.7665C48.3322 30.4226 49.0764 31.346 49.757 30.8412C50.5714 30.2378 50.4875 28.0402 51.1791 26.7587C51.6103 25.9601 51.9397 25.324 52.229 24.8099H49.9979Z" fill="#EBE3D4"/>
<path d="M32.2913 26.5354C30.2315 26.5354 28.5559 28.211 28.5559 30.2708C28.5559 32.3305 30.2315 34.0064 32.2913 34.0064C34.3511 34.0064 36.0266 32.3305 36.0266 30.2708C36.0266 28.211 34.3511 26.5354 32.2913 26.5354ZM32.2913 32.9244C30.8278 32.9244 29.6376 31.7342 29.6376 30.2708C29.6376 28.8076 30.8278 27.6171 32.2913 27.6171C33.7544 27.6171 34.9449 28.8076 34.9449 30.2708C34.9449 31.7342 33.7544 32.9244 32.2913 32.9244Z" fill="#03A9F4"/>
<path d="M33.7657 29.7299H33.597L33.7161 29.6108C33.9274 29.3995 33.9274 29.0569 33.7161 28.8459C33.5051 28.6347 33.1626 28.6347 32.9513 28.8459L32.8322 28.9651V28.7964C32.8322 28.4978 32.5899 28.2555 32.2913 28.2555C31.9927 28.2555 31.7504 28.4978 31.7504 28.7964V28.9651L31.631 28.8459C31.42 28.6347 31.0774 28.6347 30.8662 28.8459C30.6549 29.0572 30.6549 29.3995 30.8662 29.6108L30.9853 29.7299H30.8169C30.5183 29.7299 30.276 29.9722 30.276 30.2708C30.276 30.5694 30.5183 30.8116 30.8169 30.8116H30.9853L30.8662 30.9308C30.6549 31.1421 30.6549 31.4846 30.8662 31.6959C30.9718 31.8015 31.1101 31.8542 31.2487 31.8542C31.387 31.8542 31.5253 31.8015 31.631 31.6959L31.7504 31.5765V31.7452C31.7504 32.0438 31.9924 32.2861 32.2913 32.2861C32.5899 32.2861 32.8322 32.0438 32.8322 31.7452V31.5765L32.9513 31.6959C33.057 31.8013 33.1953 31.8542 33.3339 31.8542C33.4722 31.8542 33.6105 31.8015 33.7161 31.6959C33.9274 31.4846 33.9274 31.1421 33.7161 30.9308L33.597 30.8116H33.7657C34.0643 30.8116 34.3066 30.5694 34.3066 30.2708C34.3066 29.9722 34.0643 29.7299 33.7657 29.7299Z" fill="#03A9F4"/>
</svg>
