<svg width="74" height="81" viewBox="0 0 74 81" fill="none" xmlns="http://www.w3.org/2000/svg">
<path d="M66.4615 28C66.4615 45.6731 37.2308 80 37.2308 80C37.2308 80 8 45.6731 8 28C8 10.3269 19.6195 0 37.2308 0C54.8421 0 66.4615 10.3269 66.4615 28Z" fill="#523F79"/>
<path d="M0 80L74 80" stroke="#523F79" stroke-width="2"/>
<path d="M14 29.2307C14 16.4857 24.3319 6.15381 37.0769 6.15381C49.822 6.15381 60.1538 16.4857 60.1538 29.2307C60.1538 41.9758 49.822 52.3077 37.0769 52.3077C24.3319 52.3077 14 41.9758 14 29.2307Z" fill="#807BE4"/>
<mask id="mask0_2676_1850" style="mask-type:alpha" maskUnits="userSpaceOnUse" x="20" y="10" width="34" height="38">
<path d="M53.6391 28.6975C52.1913 26.8792 52.7652 24.7196 52.3171 22.7634C52.0741 21.7138 50.435 21.2588 50.9383 20.4815C53.4702 16.588 48.3185 15.1196 48.4185 12.0345C48.4237 11.8328 47.7308 11.3451 47.3275 11.7553C45.6281 13.4771 43.0601 13.3357 41.2021 14.6697C40.3938 15.2454 39.644 15.2057 38.7599 14.7904C39.1632 14.0234 39.5389 13.3133 39.9129 12.5998C38.4703 13.6977 36.5641 13.6373 35.9729 12.5619C34.4717 9.81628 32.1777 11.1227 29.9182 10.8332C31.8158 11.6725 30.0061 12.9548 30.5697 13.8252C31.054 14.5732 31.528 15.2678 30.4473 15.6418C29.5769 15.9486 29.7872 17.8117 27.8793 16.8345C25.5663 15.6539 24.5822 16.6949 24.7062 19.3181C24.7528 20.2867 24.6373 21.3156 23.6876 21.8499C23.2568 22.0981 22.9741 22.1653 23.162 22.7462C23.7497 24.5783 23.3567 25.3194 21.5591 25.6589C21.0231 25.7641 20.1406 25.9554 20.4147 26.3328C21.8469 28.3028 18.9755 30.7433 21.2023 32.5461C21.4574 32.7512 21.404 33.089 21.3454 33.4786C20.8042 37.0428 22.0434 38.6664 25.6335 39.2868C26.4074 39.4195 27.164 39.6712 28.2877 39.9556C26.8813 41.4119 26.5211 43.02 26.2161 44.678C25.9196 46.2861 26.6107 46.9651 28.0551 46.4377C30.2336 45.6466 32.2484 46.3481 34.3373 46.6756C35.1232 46.7997 35.9281 47.8062 36.0229 47.6821C37.6086 45.6415 39.9612 48.0561 41.733 46.5894C42.5826 45.8897 44.0752 45.8345 45.2593 46.4257C46.6709 47.1289 46.8156 46.6015 46.3158 45.414C45.8367 44.2661 45.7574 43.6698 47.2448 42.9355C50.1644 41.4861 50.061 41.1862 47.3741 39.1024C46.7519 38.6267 46.0125 38.2682 45.4747 37.7081C44.3631 36.5482 43.2221 34.4592 44.3355 33.6664C46.5088 32.1187 49.3251 30.6554 51.8621 30.6744C54.1871 30.6916 53.9476 29.0836 53.6391 28.6975Z" fill="#121111"/>
</mask>
<g mask="url(#mask0_2676_1850)">
<path d="M47.4619 10.7692H26.6919C22.2313 10.7693 18.6154 14.3855 18.6154 18.8461V23.0769H55.5384V18.8461C55.5384 14.3855 51.9224 10.7693 47.4619 10.7692Z" fill="#464655"/>
<path d="M18.6154 39.6156C18.6154 44.0763 22.2315 47.6925 26.6923 47.6925H47.4615C51.9223 47.6925 55.5384 44.0763 55.5384 39.6156V35.3848H18.6154V39.6156Z" fill="#FFE15A"/>
<path d="M55.5384 23.077H18.6154V35.385H55.5384V23.077Z" fill="#FF4B55"/>
</g>
</svg>
