<svg width="74" height="81" viewBox="0 0 74 81" fill="none" xmlns="http://www.w3.org/2000/svg">
<path d="M66.4615 28C66.4615 45.6731 37.2308 80 37.2308 80C37.2308 80 8 45.6731 8 28C8 10.3269 19.6195 0 37.2308 0C54.8421 0 66.4615 10.3269 66.4615 28Z" fill="#523F79"/>
<path d="M0 80L74 80" stroke="#523F79" stroke-width="2"/>
<path d="M14 29.2307C14 16.4857 24.3319 6.15381 37.0769 6.15381C49.822 6.15381 60.1538 16.4857 60.1538 29.2307C60.1538 41.9758 49.822 52.3077 37.0769 52.3077C24.3319 52.3077 14 41.9758 14 29.2307Z" fill="#807BE4"/>
<path d="M54.9138 18.9676C54.62 18.6168 54.2366 18.3509 53.8036 18.1979C53.3519 18.0558 52.8639 18.2671 52.6618 18.6922C52.5546 18.9989 52.6618 19.3181 52.6303 19.6623C52.4599 20.7825 50.7 21.3144 49.9683 22.0278C49.2339 22.8096 48.4433 23.5375 47.6027 24.2057C46.9719 24.6625 46.3411 25.0943 45.7797 24.5624C45.2183 24.0304 45.3318 22.9791 44.8083 22.4659C44.2611 21.9092 43.595 21.4815 42.8591 21.2143C39.623 19.9188 36.0274 20.0753 32.5012 19.9376C29.0856 19.7902 25.6986 19.2505 22.4083 18.3293C21.4108 18.0917 20.3585 18.285 19.5129 18.8612C19.0209 19.3994 19.1092 20.7011 19.0209 21.3645C18.6234 24.1556 18.1756 27.4098 19.5066 30.0132C20.4969 31.9846 22.3263 33.1861 24.3638 34.1624C25.3301 34.6855 26.3731 35.0551 27.4547 35.2576C28.9308 35.4578 30.1798 35.3139 31.1891 36.4591C31.5045 36.8284 31.6307 37.3791 32.1416 37.548C32.4228 37.5776 32.707 37.5456 32.9743 37.4542C33.7108 37.3493 34.4437 37.6668 34.8667 38.274C35.2831 38.8998 35.9896 41.2842 37.0178 39.9011C37.371 39.4255 37.6486 38.7308 37.9135 38.4242C38.8474 37.2849 40.3771 36.8094 41.7993 37.2164C42.6004 37.4792 42.7266 37.4667 43.1871 36.9723C44.9596 34.9822 45.9437 36.0023 46.6944 36.1274C47.0728 36.19 47.546 36.0211 47.5964 35.6456C48.0443 36.7282 49.4888 39.4443 50.6937 39.025C51.1865 38.7782 51.4308 38.2171 51.274 37.692C51.0848 36.8221 50.4098 36.334 50.2332 35.0198C50.02 33.5511 50.5483 32.0723 51.6462 31.0646C52.2392 30.5452 53.1286 29.9819 53.0781 29.1872C53.0214 28.0106 51.0343 27.5037 52.8637 25.0255C53.8351 23.6362 53.7909 23.5924 53.9802 22.5222C54.0225 22.1541 54.1593 21.8028 54.3776 21.5022C54.8633 20.8701 56.3836 20.4821 54.9138 18.9676Z" fill="#E64C3C"/>
<path d="M39.0112 37.5236C37.6865 38.2182 37.6171 39.0756 37.0052 39.9017C35.977 41.2847 35.2705 38.9066 34.8541 38.2745C34.6065 37.9164 34.2442 37.6518 33.8259 37.5236H39.0112Z" fill="#ECF0F1"/>
<path d="M50.2206 35.0199H26.4014C24.6905 34.4225 23.0774 33.579 21.6135 32.5166H50.5802C50.226 33.301 50.1014 34.1685 50.2206 35.0199Z" fill="#ECF0F1"/>
<path d="M52.7692 30.0134H19.5067C19.1179 29.2253 18.8601 28.3799 18.7434 27.5101H52.2267C52.5358 28.2486 53.5766 28.9808 52.7692 30.0134Z" fill="#ECF0F1"/>
<path d="M46.379 24.8068V25.007H32.5012V22.5038H44.8398C45.3382 23.0983 45.2183 24.0433 45.7797 24.5627C45.9377 24.7216 46.1541 24.8097 46.379 24.8068Z" fill="#ECF0F1"/>
<path d="M32.5009 19.9377V27.5101H18.743C18.5474 25.4634 18.6365 23.3997 19.0079 21.3771C19.0962 20.7012 19.0079 19.3995 19.4999 18.8738C20.3456 18.2867 21.4048 18.0883 22.4079 18.3294C25.6991 19.2471 29.0856 19.7868 32.5009 19.9377Z" fill="#285680"/>
<path d="M53.9486 22.5038C53.7657 23.5552 53.8035 23.6052 52.8321 25.007H46.3789V24.8068C47.2368 24.8068 48.9021 23.0983 49.5329 22.5038H53.9486Z" fill="#ECF0F1"/>
<path d="M25.165 21.402C25.5687 22.2656 25.5624 22.3345 25.739 22.3595L26.6033 22.4909C26.7025 22.5097 26.783 22.5816 26.8122 22.6776C26.8414 22.7736 26.8143 22.8777 26.742 22.9478C26.1112 23.6111 26.0166 23.6299 26.0418 23.8114L26.1932 24.7C26.2143 24.7972 26.1769 24.8977 26.0972 24.958C26.0176 25.0183 25.91 25.0275 25.8211 24.9816C25.0704 24.5686 24.9821 24.4685 24.8118 24.5624L24.0359 25.0067C23.9415 25.057 23.8256 25.0445 23.7445 24.9751C23.6633 24.9057 23.6337 24.7938 23.67 24.6938C23.8277 23.7488 23.8719 23.6987 23.7457 23.5673L23.1149 22.9415C23.0528 22.87 23.0329 22.7715 23.0626 22.6818C23.0923 22.5921 23.1672 22.5244 23.26 22.5034C24.1683 22.3657 24.2377 22.3908 24.3134 22.2281L24.7045 21.4208C24.7413 21.329 24.8291 21.2672 24.9286 21.2632C25.0281 21.2591 25.1207 21.3135 25.165 21.402Z" fill="#ECF0F1"/>
</svg>
