<svg width="74" height="81" viewBox="0 0 74 81" fill="none" xmlns="http://www.w3.org/2000/svg">
<path d="M66.4615 28C66.4615 45.6731 37.2308 80 37.2308 80C37.2308 80 8 45.6731 8 28C8 10.3269 19.6195 0 37.2308 0C54.8421 0 66.4615 10.3269 66.4615 28Z" fill="#523F79"/>
<path d="M0 80L74 80" stroke="#523F79" stroke-width="2"/>
<path d="M14 29.2307C14 16.4857 24.3319 6.15381 37.0769 6.15381C49.822 6.15381 60.1538 16.4857 60.1538 29.2307C60.1538 41.9758 49.822 52.3077 37.0769 52.3077C24.3319 52.3077 14 41.9758 14 29.2307Z" fill="#807BE4"/>
<path d="M20.2426 25.4657V27.8996L21.8792 29.5603V32.9448L26.4203 37.5527H33.6352L34.3505 38.2786L33.0481 39.6002L33.6228 40.1832H34.5098V41.4383L35.4966 42.4397H36.4837V41.1592H39.8568L41.8307 43.1623L47.7253 40.703L50.9256 34.9225L45.6411 29.5603L48.4097 26.7508L51.116 27.7511L53.9114 21.1685V18.3163L52.6682 19.5776L48.4519 15.2991H46.378V17.3782L43.6545 20.1417L46.0532 21.2318L40.6437 26.7208H36.3336L32.6654 23.3106L31.7359 19.7444L29.3561 19.6409L27.2738 23.0572L24.299 22.3136L22.6088 25.1531L20.2426 25.4657Z" fill="#FE505F"/>
<path d="M28.7604 28.7515L29.4259 30.0998L30.9138 30.3162L29.8373 31.3657L30.0915 32.8477L28.7604 32.1478L27.4296 32.8477L27.6838 31.3657L26.6069 30.3162L28.0951 30.0998L28.7604 28.7515Z" fill="#FFCD38"/>
<path d="M32.7723 28.5771C33.183 28.5771 33.5159 28.2441 33.5159 27.8334C33.5159 27.4227 33.183 27.0897 32.7723 27.0897C32.3615 27.0897 32.0286 27.4227 32.0286 27.8334C32.0286 28.2441 32.3615 28.5771 32.7723 28.5771Z" fill="#FFCD38"/>
<path d="M32.7723 34.5095C33.183 34.5095 33.5159 34.1765 33.5159 33.7658C33.5159 33.3551 33.183 33.0221 32.7723 33.0221C32.3615 33.0221 32.0286 33.3551 32.0286 33.7658C32.0286 34.1765 32.3615 34.5095 32.7723 34.5095Z" fill="#FFCD38"/>
<path d="M34.8465 30.3807C35.2572 30.3807 35.5902 30.0477 35.5902 29.637C35.5902 29.2263 35.2572 28.8933 34.8465 28.8933C34.4357 28.8933 34.1028 29.2263 34.1028 29.637C34.1028 30.0477 34.4357 30.3807 34.8465 30.3807Z" fill="#FFCD38"/>
<path d="M34.8465 32.8471C35.2572 32.8471 35.5902 32.5142 35.5902 32.1034C35.5902 31.6927 35.2572 31.3597 34.8465 31.3597C34.4357 31.3597 34.1028 31.6927 34.1028 32.1034C34.1028 32.5142 34.4357 32.8471 34.8465 32.8471Z" fill="#FFCD38"/>
</svg>
