<svg width="74" height="81" viewBox="0 0 74 81" fill="none" xmlns="http://www.w3.org/2000/svg">
<path d="M66.4615 28C66.4615 45.6731 37.2308 80 37.2308 80C37.2308 80 8 45.6731 8 28C8 10.3269 19.6195 0 37.2308 0C54.8421 0 66.4615 10.3269 66.4615 28Z" fill="#523F79"/>
<path d="M0 80L74 80" stroke="#523F79" stroke-width="2"/>
<path d="M14 29.2307C14 16.4857 24.3319 6.15381 37.0769 6.15381C49.822 6.15381 60.1538 16.4857 60.1538 29.2307C60.1538 41.9758 49.822 52.3077 37.0769 52.3077C24.3319 52.3077 14 41.9758 14 29.2307Z" fill="#807BE4"/>
<mask id="mask0_2676_1910" style="mask-type:alpha" maskUnits="userSpaceOnUse" x="19" y="14" width="36" height="32">
<path d="M48.581 19.6211C45.0337 16.7886 41.6431 16.7936 38.1938 19.3872C34.6431 22.0538 28.2768 19.9511 27.5484 15.646C27.2185 13.6876 26.6812 13.928 25.5951 14.7555C24.0713 15.918 22.6586 16.3939 21.3275 14.5068C20.9616 13.9927 20.5566 14.0822 20.0568 14.4504C19.575 14.8119 19.4526 15.1585 19.593 15.729C20.2038 18.233 20.5517 20.8631 22.6047 22.7122C23.111 23.1632 23.3657 23.7735 23.0211 24.1931C20.7885 26.9293 23.062 28.1896 24.7328 29.5445C25.6784 30.3073 26.3202 30.9375 26.4542 32.3355C26.5358 33.1779 26.8184 35.1944 28.1494 34.9142C30.9945 34.3105 31.4437 36.3586 32.6424 38.0252C34.2495 40.2656 36.7075 42.1229 39.3599 41.9819C41.5304 41.8725 43.0281 40.4248 44.694 43.5375C45.5857 45.214 49.1853 44.4827 51.5437 44.9752C53.0691 45.292 52.1937 43.3003 53.0561 42.8111C53.1998 42.7265 53.3353 42.6204 53.4693 42.5226C54.1258 42.0466 54.7154 40.1246 54.6011 39.3535C54.4966 38.6653 54.0997 38.4381 53.6048 38.0716C52.0859 36.9638 50.2877 35.8395 52.4436 33.6588C52.8666 33.2293 53.0626 32.3056 52.3881 32.1464C50.0346 31.6058 51.1093 29.6175 50.6977 28.2974C50.1016 26.3837 51.707 24.8116 51.7772 22.4352C52.2084 20.3905 49.752 20.5564 48.581 19.6211Z" fill="#121111"/>
</mask>
<g mask="url(#mask0_2676_1910)">
<path d="M62.2908 24.4307H15.8904V14.9538C15.8904 14.5052 16.2486 14.1415 16.6904 14.1415H61.4909C61.9327 14.1415 62.2909 14.5052 62.2909 14.9538L62.2908 24.4307Z" fill="#6FE8C8"/>
<path d="M61.4908 45.0091H16.6904C16.2486 45.0091 15.8904 44.6453 15.8904 44.1967V34.7198H62.2908V44.1967C62.2908 44.6453 61.9326 45.0091 61.4908 45.0091Z" fill="#FF4B55"/>
<path d="M62.2908 24.4303H15.8904V34.7189H62.2908V24.4303Z" fill="#F5F5F5"/>
<path d="M16.0163 23.8872H16.0232C16.0927 23.8872 16.1491 23.8301 16.1491 23.7594V23.4826C16.1491 23.412 16.2054 23.3548 16.275 23.3548H16.8031C16.8726 23.3548 16.929 23.4119 16.929 23.4826V23.7594C16.929 23.83 16.9852 23.8872 17.0548 23.8872H18.0972C18.1667 23.8872 18.2231 23.8301 18.2231 23.7594V23.213C18.2231 23.1424 18.1668 23.0852 18.0972 23.0852H17.5725C17.503 23.0852 17.4466 23.1423 17.4466 23.213V23.227C17.4466 23.2975 17.5029 23.3548 17.5725 23.3548H17.8385C17.908 23.3548 17.9644 23.4119 17.9644 23.4826V23.4965C17.9644 23.5671 17.9081 23.6243 17.8385 23.6243H17.3136C17.2441 23.6243 17.1877 23.5672 17.1877 23.4965V23.213C17.1877 23.1424 17.1314 23.0852 17.0618 23.0852H16.0163C15.9468 23.0852 15.8904 23.1423 15.8904 23.213V23.7594C15.8904 23.8299 15.9467 23.8872 16.0163 23.8872ZM16.5372 23.8872H16.5443C16.6138 23.8872 16.6702 23.8301 16.6702 23.7594V23.7521C16.6702 23.6815 16.6139 23.6243 16.5443 23.6243H16.5372C16.4677 23.6243 16.4113 23.6814 16.4113 23.7521V23.7594C16.4113 23.8299 16.4677 23.8872 16.5372 23.8872ZM16.0163 22.8156H19.1359C19.2054 22.8156 19.2618 22.7585 19.2618 22.6878V22.6738C19.2618 22.6033 19.2055 22.546 19.1359 22.546H16.0163C15.9468 22.546 15.8904 22.6032 15.8904 22.6738V22.6878C15.8904 22.7585 15.9467 22.8156 16.0163 22.8156ZM19.1358 23.8872H18.6111C18.5415 23.8872 18.4852 23.8301 18.4852 23.7594V23.213C18.4852 23.1424 18.5415 23.0852 18.6111 23.0852H19.3948C19.4643 23.0852 19.5207 23.028 19.5207 22.9573V22.6738C19.5207 22.6033 19.5769 22.546 19.6465 22.546H19.6535C19.723 22.546 19.7794 22.6032 19.7794 22.6738V23.4965C19.7794 23.5671 19.8357 23.6243 19.9053 23.6243H19.9124C19.982 23.6243 20.0383 23.5672 20.0383 23.4965V22.6738C20.0383 22.6033 20.0946 22.546 20.1642 22.546H20.1712C20.2407 22.546 20.2971 22.6032 20.2971 22.6738V23.4965C20.2971 23.5671 20.3533 23.6243 20.4229 23.6243H20.4334C20.5029 23.6243 20.5592 23.5672 20.5592 23.4965V22.6738C20.5592 22.6033 20.6155 22.546 20.6851 22.546H20.6889C20.7584 22.546 20.8148 22.6032 20.8148 22.6738V23.7594C20.8148 23.83 20.7585 23.8872 20.6889 23.8872H19.6465C19.577 23.8872 19.5207 23.8301 19.5207 23.7594V23.4826C19.5207 23.412 19.4644 23.3548 19.3948 23.3548H18.8701C18.8006 23.3548 18.7442 23.4119 18.7442 23.4826V23.4965C18.7442 23.5671 18.8005 23.6243 18.8701 23.6243H19.1359C19.2054 23.6243 19.2618 23.6814 19.2618 23.7521V23.7594C19.2618 23.8299 19.2053 23.8872 19.1358 23.8872Z" fill="#F5F5F5"/>
<path d="M21.2027 23.8861H21.2131C21.2826 23.8861 21.339 23.829 21.339 23.7583V23.4815C21.339 23.4109 21.3952 23.3537 21.4648 23.3537H21.9863C22.0558 23.3537 22.1122 23.4108 22.1122 23.4815V23.7583C22.1122 23.8289 22.1685 23.8861 22.2381 23.8861H23.2804C23.35 23.8861 23.4063 23.829 23.4063 23.7583V23.2119C23.4063 23.1413 23.35 23.0841 23.2804 23.0841H22.7557C22.6862 23.0841 22.6298 23.1412 22.6298 23.2119V23.2259C22.6298 23.2964 22.6861 23.3537 22.7557 23.3537H23.0217C23.0912 23.3537 23.1476 23.4108 23.1476 23.4815V23.4954C23.1476 23.566 23.0913 23.6232 23.0217 23.6232H22.497C22.4275 23.6232 22.3711 23.5661 22.3711 23.4954V23.2119C22.3711 23.1413 22.3148 23.0841 22.2452 23.0841H21.2027C21.1332 23.0841 21.0768 23.1412 21.0768 23.2119V23.7583C21.0769 23.8288 21.1332 23.8861 21.2027 23.8861ZM21.7204 23.8861H21.7274C21.7969 23.8861 21.8533 23.829 21.8533 23.7583V23.751C21.8533 23.6804 21.797 23.6232 21.7274 23.6232H21.7204C21.6509 23.6232 21.5945 23.6803 21.5945 23.751V23.7583C21.5946 23.8288 21.6509 23.8861 21.7204 23.8861ZM21.2027 22.8145H24.3191C24.3886 22.8145 24.445 22.7574 24.445 22.6867V22.6727C24.445 22.6022 24.3887 22.5449 24.3191 22.5449H21.2027C21.1332 22.5449 21.0768 22.6021 21.0768 22.6727V22.6867C21.0769 22.7574 21.1332 22.8145 21.2027 22.8145ZM24.3191 23.8861H23.791C23.7215 23.8861 23.6651 23.829 23.6651 23.7583V23.2119C23.6651 23.1413 23.7214 23.0841 23.791 23.0841H24.5748C24.6443 23.0841 24.7006 23.0269 24.7006 22.9562V22.6727C24.7006 22.6022 24.7569 22.5449 24.8265 22.5449H24.8369C24.9064 22.5449 24.9628 22.6021 24.9628 22.6727V23.4954C24.9628 23.566 25.0191 23.6232 25.0887 23.6232H25.0991C25.1686 23.6232 25.225 23.5661 25.225 23.4954V22.6727C25.225 22.6022 25.2813 22.5449 25.3509 22.5449H25.3547C25.4242 22.5449 25.4806 22.6021 25.4806 22.6727V23.4954C25.4806 23.566 25.5368 23.6232 25.6064 23.6232H25.6169C25.6864 23.6232 25.7427 23.5661 25.7427 23.4954V22.6727C25.7427 22.6022 25.799 22.5449 25.8686 22.5449H25.8756C25.9451 22.5449 26.0015 22.6021 26.0015 22.6727V23.7583C26.0015 23.8289 25.9452 23.8861 25.8756 23.8861H24.8267C24.7572 23.8861 24.7008 23.829 24.7008 23.7583V23.4815C24.7008 23.4109 24.6445 23.3537 24.5749 23.3537H24.0535C23.984 23.3537 23.9276 23.4108 23.9276 23.4815V23.4954C23.9276 23.566 23.9839 23.6232 24.0535 23.6232H24.3195C24.389 23.6232 24.4453 23.6803 24.4453 23.751V23.7583C24.4449 23.8288 24.3886 23.8861 24.3191 23.8861Z" fill="#F5F5F5"/>
<path d="M26.3861 23.8861H26.3931C26.4626 23.8861 26.519 23.829 26.519 23.7583V23.4815C26.519 23.4109 26.5753 23.3537 26.6449 23.3537H27.1698C27.2393 23.3537 27.2957 23.4108 27.2957 23.4815V23.7583C27.2957 23.8289 27.3519 23.8861 27.4215 23.8861H28.4672C28.5367 23.8861 28.5931 23.829 28.5931 23.7583V23.2119C28.5931 23.1413 28.5368 23.0841 28.4672 23.0841H27.9425C27.8729 23.0841 27.8166 23.1412 27.8166 23.2119V23.2259C27.8166 23.2964 27.8728 23.3537 27.9425 23.3537H28.2084C28.2779 23.3537 28.3343 23.4108 28.3343 23.4815V23.4954C28.3343 23.566 28.278 23.6232 28.2084 23.6232H27.6804C27.6109 23.6232 27.5545 23.5661 27.5545 23.4954V23.2119C27.5545 23.1413 27.4982 23.0841 27.4286 23.0841H26.3862C26.3167 23.0841 26.2603 23.1412 26.2603 23.2119V23.7583C26.2602 23.8288 26.3166 23.8861 26.3861 23.8861ZM26.9038 23.8861H26.9108C26.9803 23.8861 27.0366 23.829 27.0366 23.7583V23.751C27.0366 23.6804 26.9804 23.6232 26.9108 23.6232H26.9038C26.8343 23.6232 26.7779 23.6803 26.7779 23.751V23.7583C26.7779 23.8288 26.8343 23.8861 26.9038 23.8861ZM26.3861 22.8145H29.5058C29.5753 22.8145 29.6317 22.7574 29.6317 22.6867V22.6727C29.6317 22.6022 29.5754 22.5449 29.5058 22.5449H26.3861C26.3166 22.5449 26.2603 22.6021 26.2603 22.6727V22.6867C26.2602 22.7574 26.3166 22.8145 26.3861 22.8145ZM29.5058 23.8861H28.9778C28.9082 23.8861 28.8519 23.829 28.8519 23.7583V23.2119C28.8519 23.1413 28.9082 23.0841 28.9778 23.0841H29.7613C29.8308 23.0841 29.8872 23.0269 29.8872 22.9562V22.6727C29.8872 22.6022 29.9435 22.5449 30.0131 22.5449H30.0202C30.0897 22.5449 30.1461 22.6021 30.1461 22.6727V23.4954C30.1461 23.566 30.2024 23.6232 30.272 23.6232H30.2824C30.3519 23.6232 30.4083 23.5661 30.4083 23.4954V22.6727C30.4083 22.6022 30.4646 22.5449 30.5342 22.5449H30.5446C30.6141 22.5449 30.6705 22.6021 30.6705 22.6727V23.4954C30.6705 23.566 30.7267 23.6232 30.7963 23.6232H30.8002C30.8697 23.6232 30.926 23.5661 30.926 23.4954V22.6727C30.926 22.6022 30.9823 22.5449 31.0519 22.5449H31.0589C31.1284 22.5449 31.1848 22.6021 31.1848 22.6727V23.7583C31.1848 23.8289 31.1285 23.8861 31.0589 23.8861H30.0131C29.9436 23.8861 29.8872 23.829 29.8872 23.7583V23.4815C29.8872 23.4109 29.8309 23.3537 29.7613 23.3537H29.2366C29.1671 23.3537 29.1107 23.4108 29.1107 23.4815V23.4954C29.1107 23.566 29.167 23.6232 29.2366 23.6232H29.506C29.5755 23.6232 29.6319 23.6803 29.6319 23.751V23.7583C29.6317 23.8288 29.5753 23.8861 29.5058 23.8861Z" fill="#F5F5F5"/>
<path d="M31.5692 23.8861H31.5762C31.6457 23.8861 31.7021 23.829 31.7021 23.7583V23.4815C31.7021 23.4109 31.7584 23.3537 31.828 23.3537H32.3527C32.4222 23.3537 32.4786 23.4108 32.4786 23.4815V23.7583C32.4786 23.8289 32.5349 23.8861 32.6045 23.8861H33.6503C33.7198 23.8861 33.7762 23.829 33.7762 23.7583V23.2119C33.7762 23.1413 33.7199 23.0841 33.6503 23.0841H33.1222C33.0527 23.0841 32.9963 23.1412 32.9963 23.2119V23.2259C32.9963 23.2964 33.0526 23.3537 33.1222 23.3537H33.3882C33.4577 23.3537 33.5141 23.4108 33.5141 23.4815V23.4954C33.5141 23.566 33.4578 23.6232 33.3882 23.6232H32.8635C32.794 23.6232 32.7376 23.5661 32.7376 23.4954V23.2119C32.7376 23.1413 32.6813 23.0841 32.6117 23.0841H31.5693C31.4998 23.0841 31.4435 23.1412 31.4435 23.2119V23.7583C31.4435 23.8288 31.4998 23.8861 31.5692 23.8861ZM32.087 23.8861H32.094C32.1635 23.8861 32.2198 23.829 32.2198 23.7583V23.751C32.2198 23.6804 32.1636 23.6232 32.094 23.6232H32.087C32.0175 23.6232 31.9611 23.6803 31.9611 23.751V23.7583C31.9612 23.8288 32.0175 23.8861 32.087 23.8861ZM31.5692 22.8145H34.6857C34.7552 22.8145 34.8116 22.7574 34.8116 22.6867V22.6727C34.8116 22.6022 34.7553 22.5449 34.6857 22.5449H31.5692C31.4997 22.5449 31.4434 22.6021 31.4434 22.6727V22.6867C31.4435 22.7574 31.4998 22.8145 31.5692 22.8145ZM34.6857 23.8861H34.1576C34.0881 23.8861 34.0317 23.829 34.0317 23.7583V23.2119C34.0317 23.1413 34.088 23.0841 34.1576 23.0841H34.948C35.0175 23.0841 35.0738 23.0269 35.0738 22.9562V22.6727C35.0738 22.6022 35.1301 22.5449 35.1997 22.5449H35.2067C35.2762 22.5449 35.3326 22.6021 35.3326 22.6727V23.4954C35.3326 23.566 35.3888 23.6232 35.4584 23.6232H35.4623C35.5318 23.6232 35.5881 23.5661 35.5881 23.4954V22.6727C35.5881 22.6022 35.6444 22.5449 35.714 22.5449H35.7244C35.7939 22.5449 35.8503 22.6021 35.8503 22.6727V23.4954C35.8503 23.566 35.9066 23.6232 35.9762 23.6232H35.9834C36.0529 23.6232 36.1092 23.5661 36.1092 23.4954V22.6727C36.1092 22.6022 36.1655 22.5449 36.2351 22.5449H36.2421C36.3116 22.5449 36.368 22.6021 36.368 22.6727V23.7583C36.368 23.8289 36.3117 23.8861 36.2421 23.8861H35.1993C35.1297 23.8861 35.0734 23.829 35.0734 23.7583V23.4815C35.0734 23.4109 35.0171 23.3537 34.9475 23.3537H34.4194C34.3499 23.3537 34.2935 23.4108 34.2935 23.4815V23.4954C34.2935 23.566 34.3498 23.6232 34.4194 23.6232H34.6854C34.7549 23.6232 34.8113 23.6803 34.8113 23.751V23.7583C34.8115 23.8288 34.7552 23.8861 34.6857 23.8861Z" fill="#F5F5F5"/>
<path d="M36.7523 23.8861H36.7595C36.829 23.8861 36.8854 23.829 36.8854 23.7583V23.4815C36.8854 23.4109 36.9417 23.3537 37.0113 23.3537H37.536C37.6055 23.3537 37.6619 23.4108 37.6619 23.4815V23.7583C37.6619 23.8289 37.7181 23.8861 37.7877 23.8861H38.8336C38.9031 23.8861 38.9594 23.829 38.9594 23.7583V23.2119C38.9594 23.1413 38.9032 23.0841 38.8336 23.0841H38.3055C38.236 23.0841 38.1796 23.1412 38.1796 23.2119V23.2259C38.1796 23.2964 38.2359 23.3537 38.3055 23.3537H38.5746C38.6442 23.3537 38.7005 23.4108 38.7005 23.4815V23.4954C38.7005 23.566 38.6442 23.6232 38.5746 23.6232H38.0499C37.9804 23.6232 37.924 23.5661 37.924 23.4954V23.2119C37.924 23.1413 37.8678 23.0841 37.7982 23.0841H36.7523C36.6828 23.0841 36.6265 23.1412 36.6265 23.2119V23.7583C36.6266 23.8288 36.6828 23.8861 36.7523 23.8861ZM37.2734 23.8861H37.2772C37.3468 23.8861 37.4031 23.829 37.4031 23.7583V23.751C37.4031 23.6804 37.3468 23.6232 37.2772 23.6232H37.2734C37.2039 23.6232 37.1476 23.6803 37.1476 23.751V23.7583C37.1476 23.8288 37.2039 23.8861 37.2734 23.8861ZM36.7523 22.8145H39.8721C39.9416 22.8145 39.998 22.7574 39.998 22.6867V22.6727C39.998 22.6022 39.9417 22.5449 39.8721 22.5449H36.7523C36.6828 22.5449 36.6265 22.6021 36.6265 22.6727V22.6867C36.6266 22.7574 36.6828 22.8145 36.7523 22.8145ZM39.8722 23.8861H39.3442C39.2746 23.8861 39.2183 23.829 39.2183 23.7583V23.2119C39.2183 23.1413 39.2746 23.0841 39.3442 23.0841H40.1311C40.2007 23.0841 40.257 23.0269 40.257 22.9562V22.6727C40.257 22.6022 40.3133 22.5449 40.3829 22.5449H40.3899C40.4594 22.5449 40.5158 22.6021 40.5158 22.6727V23.4954C40.5158 23.566 40.572 23.6232 40.6416 23.6232H40.6488C40.7183 23.6232 40.7747 23.5661 40.7747 23.4954V22.6727C40.7747 22.6022 40.831 22.5449 40.9006 22.5449H40.9075C40.977 22.5449 41.0334 22.6021 41.0334 22.6727V23.4954C41.0334 23.566 41.0897 23.6232 41.1593 23.6232H41.1663C41.2358 23.6232 41.2922 23.5661 41.2922 23.4954V22.6727C41.2922 22.6022 41.3484 22.5449 41.418 22.5449H41.4252C41.4947 22.5449 41.5511 22.6021 41.5511 22.6727V23.7583C41.5511 23.8289 41.4948 23.8861 41.4252 23.8861H40.3828C40.3133 23.8861 40.2569 23.829 40.2569 23.7583V23.4815C40.2569 23.4109 40.2007 23.3537 40.1311 23.3537H39.603C39.5335 23.3537 39.4771 23.4108 39.4771 23.4815V23.4954C39.4771 23.566 39.5334 23.6232 39.603 23.6232H39.8721C39.9416 23.6232 39.998 23.6803 39.998 23.751V23.7583C39.998 23.8288 39.9417 23.8861 39.8722 23.8861Z" fill="#F5F5F5"/>
<path d="M41.9358 23.8861H41.943C42.0125 23.8861 42.0689 23.829 42.0689 23.7583V23.4815C42.0689 23.4109 42.1251 23.3537 42.1947 23.3537H42.7195C42.789 23.3537 42.8453 23.4108 42.8453 23.4815V23.7583C42.8453 23.8289 42.9016 23.8861 42.9712 23.8861H44.017C44.0865 23.8861 44.1429 23.829 44.1429 23.7583V23.2119C44.1429 23.1413 44.0866 23.0841 44.017 23.0841H43.4921C43.4226 23.0841 43.3662 23.1412 43.3662 23.2119V23.2259C43.3662 23.2964 43.4225 23.3537 43.4921 23.3537H43.7549C43.8244 23.3537 43.8807 23.4108 43.8807 23.4815V23.4954C43.8807 23.566 43.8245 23.6232 43.7549 23.6232H43.2334C43.1639 23.6232 43.1075 23.5661 43.1075 23.4954V23.2119C43.1075 23.1413 43.0512 23.0841 42.9816 23.0841H41.9358C41.8663 23.0841 41.8099 23.1412 41.8099 23.2119V23.7583C41.8099 23.8288 41.8663 23.8861 41.9358 23.8861ZM42.4568 23.8861H42.4606C42.5301 23.8861 42.5865 23.829 42.5865 23.7583V23.751C42.5865 23.6804 42.5302 23.6232 42.4606 23.6232H42.4568C42.3873 23.6232 42.3309 23.6803 42.3309 23.751V23.7583C42.331 23.8288 42.3873 23.8861 42.4568 23.8861ZM41.9358 22.8145H45.0555C45.125 22.8145 45.1814 22.7574 45.1814 22.6867V22.6727C45.1814 22.6022 45.1251 22.5449 45.0555 22.5449H41.9358C41.8663 22.5449 41.8099 22.6021 41.8099 22.6727V22.6867C41.8099 22.7574 41.8663 22.8145 41.9358 22.8145ZM45.0556 23.8861H44.5309C44.4614 23.8861 44.405 23.829 44.405 23.7583V23.2119C44.405 23.1413 44.4613 23.0841 44.5309 23.0841H45.3144C45.3839 23.0841 45.4403 23.0269 45.4403 22.9562V22.6727C45.4403 22.6022 45.4966 22.5449 45.5662 22.5449H45.5733C45.6429 22.5449 45.6992 22.6021 45.6992 22.6727V23.4954C45.6992 23.566 45.7555 23.6232 45.8251 23.6232H45.8321C45.9016 23.6232 45.958 23.5661 45.958 23.4954V22.6727C45.958 22.6022 46.0142 22.5449 46.0838 22.5449H46.091C46.1605 22.5449 46.2169 22.6021 46.2169 22.6727V23.4954C46.2169 23.566 46.2732 23.6232 46.3428 23.6232H46.3497C46.4192 23.6232 46.4756 23.5661 46.4756 23.4954V22.6727C46.4756 22.6022 46.5319 22.5449 46.6015 22.5449H46.6087C46.6782 22.5449 46.7345 22.6021 46.7345 22.6727V23.7583C46.7345 23.8289 46.6783 23.8861 46.6087 23.8861H45.566C45.4965 23.8861 45.4401 23.829 45.4401 23.7583V23.4815C45.4401 23.4109 45.3839 23.3537 45.3142 23.3537H44.7863C44.7168 23.3537 44.6604 23.4108 44.6604 23.4815V23.4954C44.6604 23.566 44.7167 23.6232 44.7863 23.6232H45.0554C45.1249 23.6232 45.1813 23.6803 45.1813 23.751V23.7583C45.1815 23.8288 45.125 23.8861 45.0556 23.8861Z" fill="#F5F5F5"/>
<path d="M47.119 23.8861H47.1262C47.1957 23.8861 47.2521 23.829 47.2521 23.7583V23.4815C47.2521 23.4109 47.3084 23.3537 47.378 23.3537H47.9059C47.9755 23.3537 48.0318 23.4108 48.0318 23.4815V23.7583C48.0318 23.8289 48.0881 23.8861 48.1577 23.8861H49.2004C49.2699 23.8861 49.3262 23.829 49.3262 23.7583V23.2119C49.3262 23.1413 49.27 23.0841 49.2004 23.0841H48.6754C48.6059 23.0841 48.5496 23.1412 48.5496 23.2119V23.2259C48.5496 23.2964 48.6058 23.3537 48.6754 23.3537H48.9449C49.0144 23.3537 49.0708 23.4108 49.0708 23.4815V23.4954C49.0708 23.566 49.0145 23.6232 48.9449 23.6232H48.4134C48.3439 23.6232 48.2875 23.5661 48.2875 23.4954V23.2119C48.2875 23.1413 48.2312 23.0841 48.1616 23.0841H47.1192C47.0497 23.0841 46.9933 23.1412 46.9933 23.2119V23.7583C46.9933 23.8288 47.0495 23.8861 47.119 23.8861ZM47.6368 23.8861H47.6472C47.7167 23.8861 47.7731 23.829 47.7731 23.7583V23.751C47.7731 23.6804 47.7168 23.6232 47.6472 23.6232H47.6368C47.5673 23.6232 47.5109 23.6803 47.5109 23.751V23.7583C47.5109 23.8288 47.5673 23.8861 47.6368 23.8861ZM47.119 22.8145H50.2387C50.3083 22.8145 50.3646 22.7574 50.3646 22.6867V22.6727C50.3646 22.6022 50.3083 22.5449 50.2387 22.5449H47.119C47.0495 22.5449 46.9932 22.6021 46.9932 22.6727V22.6867C46.9933 22.7574 47.0495 22.8145 47.119 22.8145ZM50.2389 23.8861H49.7142C49.6447 23.8861 49.5883 23.829 49.5883 23.7583V23.2119C49.5883 23.1413 49.6446 23.0841 49.7142 23.0841H50.4978C50.5673 23.0841 50.6236 23.0269 50.6236 22.9562V22.6727C50.6236 22.6022 50.6799 22.5449 50.7495 22.5449H50.7567C50.8262 22.5449 50.8826 22.6021 50.8826 22.6727V23.4954C50.8826 23.566 50.9388 23.6232 51.0084 23.6232H51.0154C51.0849 23.6232 51.1413 23.5661 51.1413 23.4954V22.6727C51.1413 22.6022 51.1976 22.5449 51.2672 22.5449H51.2743C51.3438 22.5449 51.4002 22.6021 51.4002 22.6727V23.4954C51.4002 23.566 51.4565 23.6232 51.5261 23.6232H51.5365C51.606 23.6232 51.6624 23.5661 51.6624 23.4954V22.6727C51.6624 22.6022 51.7187 22.5449 51.7883 22.5449H51.7919C51.8614 22.5449 51.9178 22.6021 51.9178 22.6727V23.7583C51.9178 23.8289 51.8615 23.8861 51.7919 23.8861H50.7495C50.68 23.8861 50.6236 23.829 50.6236 23.7583V23.4815C50.6236 23.4109 50.5674 23.3537 50.4978 23.3537H49.9763C49.9068 23.3537 49.8504 23.4108 49.8504 23.4815V23.4954C49.8504 23.566 49.9067 23.6232 49.9763 23.6232H50.239C50.3085 23.6232 50.3649 23.6803 50.3649 23.751V23.7583C50.3647 23.8288 50.3084 23.8861 50.2389 23.8861Z" fill="#F5F5F5"/>
<path d="M52.3057 23.8861H52.3095C52.379 23.8861 52.4354 23.829 52.4354 23.7583V23.4815C52.4354 23.4109 52.4917 23.3537 52.5613 23.3537H53.0862C53.1557 23.3537 53.212 23.4108 53.212 23.4815V23.7583C53.212 23.8289 53.2683 23.8861 53.3379 23.8861H54.3836C54.4531 23.8861 54.5094 23.829 54.5094 23.7583V23.2119C54.5094 23.1413 54.4532 23.0841 54.3836 23.0841H53.8623C53.7928 23.0841 53.7364 23.1412 53.7364 23.2119V23.2259C53.7364 23.2964 53.7927 23.3537 53.8623 23.3537H54.1281C54.1976 23.3537 54.254 23.4108 54.254 23.4815V23.4954C54.254 23.566 54.1977 23.6232 54.1281 23.6232H53.6001C53.5306 23.6232 53.4742 23.5661 53.4742 23.4954V23.2119C53.4742 23.1413 53.4179 23.0841 53.3483 23.0841H52.3057C52.2362 23.0841 52.1798 23.1412 52.1798 23.2119V23.7583C52.1797 23.8288 52.2362 23.8861 52.3057 23.8861ZM52.8233 23.8861H52.8305C52.9 23.8861 52.9564 23.829 52.9564 23.7583V23.751C52.9564 23.6804 52.9001 23.6232 52.8305 23.6232H52.8233C52.7538 23.6232 52.6975 23.6803 52.6975 23.751V23.7583C52.6975 23.8288 52.7538 23.8861 52.8233 23.8861ZM52.3057 22.8145H55.4288C55.4983 22.8145 55.5547 22.7574 55.5547 22.6867V22.6727C55.5547 22.6022 55.4984 22.5449 55.4288 22.5449H52.3057C52.2362 22.5449 52.1798 22.6021 52.1798 22.6727V22.6867C52.1797 22.7574 52.2362 22.8145 52.3057 22.8145ZM55.4287 23.8861H54.8972C54.8277 23.8861 54.7713 23.829 54.7713 23.7583V23.2119C54.7713 23.1413 54.8276 23.0841 54.8972 23.0841H55.681C55.7505 23.0841 55.8068 23.0269 55.8068 22.9562V22.6727C55.8068 22.6022 55.8631 22.5449 55.9327 22.5449H55.9431C56.0127 22.5449 56.069 22.6021 56.069 22.6727V23.4954C56.069 23.566 56.1253 23.6232 56.1949 23.6232H56.2019C56.2714 23.6232 56.3278 23.5661 56.3278 23.4954V22.6727C56.3278 22.6022 56.384 22.5449 56.4536 22.5449H56.4574C56.527 22.5449 56.5833 22.6021 56.5833 22.6727V23.4954C56.5833 23.566 56.6396 23.6232 56.7092 23.6232H56.7196C56.7891 23.6232 56.8455 23.5661 56.8455 23.4954V22.6727C56.8455 22.6022 56.9018 22.5449 56.9714 22.5449H56.9785C57.048 22.5449 57.1044 22.6021 57.1044 22.6727V23.7583C57.1044 23.8289 57.0481 23.8861 56.9785 23.8861H55.9327C55.8632 23.8861 55.8068 23.829 55.8068 23.7583V23.4815C55.8068 23.4109 55.7506 23.3537 55.681 23.3537H55.1562C55.0867 23.3537 55.0304 23.4108 55.0304 23.4815V23.4954C55.0304 23.566 55.0866 23.6232 55.1562 23.6232H55.4288C55.4983 23.6232 55.5547 23.6803 55.5547 23.751V23.7583C55.5547 23.8288 55.4983 23.8861 55.4287 23.8861Z" fill="#F5F5F5"/>
<path d="M16.0163 24.7019H18.0973C18.1668 24.7019 18.2232 24.6447 18.2232 24.574V24.2905C18.2232 24.22 18.1669 24.1627 18.0973 24.1627H16.0163C15.9468 24.1627 15.8904 24.2199 15.8904 24.2905V24.574C15.8904 24.6447 15.9467 24.7019 16.0163 24.7019ZM18.6112 24.7019H20.6889C20.7584 24.7019 20.8148 24.6447 20.8148 24.574V24.2905C20.8148 24.22 20.7585 24.1627 20.6889 24.1627H18.6112C18.5416 24.1627 18.4853 24.2199 18.4853 24.2905V24.574C18.4853 24.6447 18.5416 24.7019 18.6112 24.7019Z" fill="#F5F5F5"/>
<path d="M21.2027 24.7019H23.2804C23.35 24.7019 23.4063 24.6447 23.4063 24.574V24.2905C23.4063 24.22 23.35 24.1627 23.2804 24.1627H21.2027C21.1332 24.1627 21.0768 24.2199 21.0768 24.2905V24.574C21.0769 24.6447 21.1332 24.7019 21.2027 24.7019ZM23.791 24.7019H25.8754C25.9449 24.7019 26.0013 24.6447 26.0013 24.574V24.2905C26.0013 24.22 25.945 24.1627 25.8754 24.1627H23.791C23.7215 24.1627 23.6651 24.2199 23.6651 24.2905V24.574C23.6651 24.6447 23.7215 24.7019 23.791 24.7019Z" fill="#F5F5F5"/>
<path d="M26.3861 24.7019H28.4672C28.5367 24.7019 28.5931 24.6447 28.5931 24.574V24.2905C28.5931 24.22 28.5368 24.1627 28.4672 24.1627H26.3861C26.3166 24.1627 26.2603 24.2199 26.2603 24.2905V24.574C26.2602 24.6447 26.3166 24.7019 26.3861 24.7019ZM28.9777 24.7019H31.0587C31.1282 24.7019 31.1846 24.6447 31.1846 24.574V24.2905C31.1846 24.22 31.1283 24.1627 31.0587 24.1627H28.9777C28.9082 24.1627 28.8518 24.2199 28.8518 24.2905V24.574C28.8519 24.6447 28.9083 24.7019 28.9777 24.7019Z" fill="#F5F5F5"/>
<path d="M31.5692 24.7019H33.6503C33.7198 24.7019 33.7762 24.6447 33.7762 24.574V24.2905C33.7762 24.22 33.7199 24.1627 33.6503 24.1627H31.5692C31.4997 24.1627 31.4434 24.2199 31.4434 24.2905V24.574C31.4435 24.6447 31.4998 24.7019 31.5692 24.7019ZM34.1576 24.7019H36.242C36.3115 24.7019 36.3679 24.6447 36.3679 24.574V24.2905C36.3679 24.22 36.3116 24.1627 36.242 24.1627H34.1576C34.0881 24.1627 34.0317 24.2199 34.0317 24.2905V24.574C34.0317 24.6447 34.088 24.7019 34.1576 24.7019Z" fill="#F5F5F5"/>
<path d="M36.7525 24.7019H38.8337C38.9032 24.7019 38.9596 24.6447 38.9596 24.574V24.2905C38.9596 24.22 38.9033 24.1627 38.8337 24.1627H36.7525C36.683 24.1627 36.6266 24.2199 36.6266 24.2905V24.574C36.6267 24.6447 36.683 24.7019 36.7525 24.7019ZM39.3441 24.7019H41.4253C41.4948 24.7019 41.5512 24.6447 41.5512 24.574V24.2905C41.5512 24.22 41.4949 24.1627 41.4253 24.1627H39.3441C39.2746 24.1627 39.2182 24.2199 39.2182 24.2905V24.574C39.2183 24.6447 39.2746 24.7019 39.3441 24.7019Z" fill="#F5F5F5"/>
<path d="M41.9358 24.7019H44.017C44.0865 24.7019 44.1429 24.6447 44.1429 24.574V24.2905C44.1429 24.22 44.0866 24.1627 44.017 24.1627H41.9358C41.8663 24.1627 41.8099 24.2199 41.8099 24.2905V24.574C41.8099 24.6447 41.8663 24.7019 41.9358 24.7019ZM44.5309 24.7019H46.6087C46.6782 24.7019 46.7345 24.6447 46.7345 24.574V24.2905C46.7345 24.22 46.6783 24.1627 46.6087 24.1627H44.5309C44.4614 24.1627 44.405 24.2199 44.405 24.2905V24.574C44.405 24.6447 44.4614 24.7019 44.5309 24.7019Z" fill="#F5F5F5"/>
<path d="M47.1189 24.7019H49.2001C49.2697 24.7019 49.326 24.6447 49.326 24.574V24.2905C49.326 24.22 49.2697 24.1627 49.2001 24.1627H47.1189C47.0494 24.1627 46.993 24.2199 46.993 24.2905V24.574C46.9931 24.6447 47.0494 24.7019 47.1189 24.7019ZM49.714 24.7019H51.7916C51.8611 24.7019 51.9175 24.6447 51.9175 24.574V24.2905C51.9175 24.22 51.8612 24.1627 51.7916 24.1627H49.714C49.6445 24.1627 49.5881 24.2199 49.5881 24.2905V24.574C49.5882 24.6447 49.6445 24.7019 49.714 24.7019Z" fill="#F5F5F5"/>
<path d="M52.3057 24.7019H54.3835C54.453 24.7019 54.5093 24.6447 54.5093 24.574V24.2905C54.5093 24.22 54.4531 24.1627 54.3835 24.1627H52.3057C52.2362 24.1627 52.1798 24.2199 52.1798 24.2905V24.574C52.1797 24.6447 52.2362 24.7019 52.3057 24.7019ZM54.8973 24.7019H56.9785C57.048 24.7019 57.1044 24.6447 57.1044 24.574V24.2905C57.1044 24.22 57.0481 24.1627 56.9785 24.1627H54.8973C54.8278 24.1627 54.7714 24.2199 54.7714 24.2905V24.574C54.7714 24.6447 54.8278 24.7019 54.8973 24.7019Z" fill="#F5F5F5"/>
<path d="M56.9785 35.2645H56.9681C56.8986 35.2645 56.8422 35.3217 56.8422 35.3923V35.6691C56.8422 35.7397 56.7859 35.7969 56.7163 35.7969H56.1949C56.1254 35.7969 56.069 35.7398 56.069 35.6691V35.3923C56.069 35.3218 56.0127 35.2645 55.9431 35.2645H54.9007C54.8312 35.2645 54.7748 35.3217 54.7748 35.3923V35.9388C54.7748 36.0094 54.8311 36.0667 54.9007 36.0667H55.4255C55.495 36.0667 55.5513 36.0095 55.5513 35.9388V35.9249C55.5513 35.8543 55.4951 35.797 55.4255 35.797H55.1595C55.09 35.797 55.0336 35.7399 55.0336 35.6692V35.6553C55.0336 35.5848 55.0899 35.5275 55.1595 35.5275H55.6844C55.7539 35.5275 55.8102 35.5847 55.8102 35.6553V35.9388C55.8102 36.0094 55.8665 36.0667 55.9361 36.0667H56.9785C57.048 36.0667 57.1044 36.0095 57.1044 35.9388V35.3923C57.1043 35.3218 57.0479 35.2645 56.9785 35.2645ZM56.4608 35.2645H56.4538C56.3843 35.2645 56.3279 35.3217 56.3279 35.3923V35.3996C56.3279 35.4702 56.3842 35.5274 56.4538 35.5274H56.4608C56.5303 35.5274 56.5866 35.4703 56.5866 35.3996V35.3923C56.5866 35.3218 56.5303 35.2645 56.4608 35.2645ZM56.9785 36.3361H53.8621C53.7926 36.3361 53.7362 36.3932 53.7362 36.4639V36.4779C53.7362 36.5485 53.7925 36.6057 53.8621 36.6057H56.9785C57.048 36.6057 57.1044 36.5486 57.1044 36.4779V36.4639C57.1043 36.3932 57.0479 36.3361 56.9785 36.3361ZM53.8621 35.2645H54.3901C54.4597 35.2645 54.516 35.3217 54.516 35.3923V35.9388C54.516 36.0094 54.4597 36.0667 54.3901 36.0667H53.6064C53.5369 36.0667 53.4805 36.1238 53.4805 36.1945V36.478C53.4805 36.5486 53.4243 36.6058 53.3547 36.6058H53.3442C53.2747 36.6058 53.2183 36.5487 53.2183 36.478V35.6553C53.2183 35.5848 53.1621 35.5275 53.0925 35.5275H53.082C53.0125 35.5275 52.9562 35.5847 52.9562 35.6553V36.478C52.9562 36.5486 52.8999 36.6058 52.8303 36.6058H52.8265C52.757 36.6058 52.7006 36.5487 52.7006 36.478V35.6553C52.7006 35.5848 52.6443 35.5275 52.5747 35.5275H52.5643C52.4948 35.5275 52.4384 35.5847 52.4384 35.6553V36.478C52.4384 36.5486 52.3821 36.6058 52.3125 36.6058H52.3056C52.2361 36.6058 52.1797 36.5487 52.1797 36.478V35.3924C52.1797 35.3219 52.236 35.2646 52.3056 35.2646H53.3546C53.4241 35.2646 53.4804 35.3218 53.4804 35.3924V35.6692C53.4804 35.7398 53.5367 35.797 53.6063 35.797H54.1278C54.1973 35.797 54.2537 35.7399 54.2537 35.6692V35.6553C54.2537 35.5848 54.1974 35.5275 54.1278 35.5275H53.8618C53.7923 35.5275 53.7359 35.4704 53.7359 35.3997V35.3924C53.7362 35.3218 53.7926 35.2645 53.8621 35.2645Z" fill="#F5F5F5"/>
<path d="M51.795 35.2645H51.788C51.7185 35.2645 51.6621 35.3217 51.6621 35.3923V35.6691C51.6621 35.7397 51.6058 35.7969 51.5362 35.7969H51.0113C50.9418 35.7969 50.8855 35.7398 50.8855 35.6691V35.3923C50.8855 35.3218 50.8292 35.2645 50.7596 35.2645H49.7139C49.6444 35.2645 49.5881 35.3217 49.5881 35.3923V35.9388C49.5881 36.0094 49.6443 36.0667 49.7139 36.0667H50.2387C50.3082 36.0667 50.3645 36.0095 50.3645 35.9388V35.9249C50.3645 35.8543 50.3083 35.797 50.2387 35.797H49.9727C49.9032 35.797 49.8468 35.7399 49.8468 35.6692V35.6553C49.8468 35.5848 49.9031 35.5275 49.9727 35.5275H50.5008C50.5703 35.5275 50.6266 35.5847 50.6266 35.6553V35.9388C50.6266 36.0094 50.6829 36.0667 50.7525 36.0667H51.7949C51.8644 36.0667 51.9208 36.0095 51.9208 35.9388V35.3923C51.921 35.3218 51.8645 35.2645 51.795 35.2645ZM51.2773 35.2645H51.2703C51.2008 35.2645 51.1445 35.3217 51.1445 35.3923V35.3996C51.1445 35.4702 51.2007 35.5274 51.2703 35.5274H51.2773C51.3468 35.5274 51.4032 35.4703 51.4032 35.3996V35.3923C51.4032 35.3218 51.3468 35.2645 51.2773 35.2645ZM51.795 36.3361H48.6752C48.6057 36.3361 48.5493 36.3932 48.5493 36.4639V36.4779C48.5493 36.5485 48.6056 36.6057 48.6752 36.6057H51.795C51.8645 36.6057 51.9209 36.5486 51.9209 36.4779V36.4639C51.921 36.3932 51.8645 36.3361 51.795 36.3361ZM48.6753 35.2645H49.2034C49.2729 35.2645 49.3292 35.3217 49.3292 35.3923V35.9388C49.3292 36.0094 49.273 36.0667 49.2034 36.0667H48.4198C48.3503 36.0667 48.2939 36.1238 48.2939 36.1945V36.478C48.2939 36.5486 48.2376 36.6058 48.168 36.6058H48.1609C48.0914 36.6058 48.035 36.5487 48.035 36.478V35.6553C48.035 35.5848 47.9787 35.5275 47.9091 35.5275H47.8987C47.8292 35.5275 47.7728 35.5847 47.7728 35.6553V36.478C47.7728 36.5486 47.7165 36.6058 47.6469 36.6058H47.6365C47.567 36.6058 47.5106 36.5487 47.5106 36.478V35.6553C47.5106 35.5848 47.4544 35.5275 47.3848 35.5275H47.381C47.3114 35.5275 47.2551 35.5847 47.2551 35.6553V36.478C47.2551 36.5486 47.1988 36.6058 47.1292 36.6058H47.1222C47.0527 36.6058 46.9963 36.5487 46.9963 36.478V35.3924C46.9963 35.3219 47.0526 35.2646 47.1222 35.2646H48.168C48.2376 35.2646 48.2939 35.3218 48.2939 35.3924V35.6692C48.2939 35.7398 48.3502 35.797 48.4198 35.797H48.9445C49.014 35.797 49.0704 35.7399 49.0704 35.6692V35.6553C49.0704 35.5848 49.0141 35.5275 48.9445 35.5275H48.6751C48.6056 35.5275 48.5492 35.4704 48.5492 35.3997V35.3924C48.5494 35.3218 48.6058 35.2645 48.6753 35.2645Z" fill="#F5F5F5"/>
<path d="M46.612 35.2645H46.605C46.5355 35.2645 46.4791 35.3217 46.4791 35.3923V35.6691C46.4791 35.7397 46.4228 35.7969 46.3532 35.7969H45.8285C45.759 35.7969 45.7026 35.7398 45.7026 35.6691V35.3923C45.7026 35.3218 45.6463 35.2645 45.5767 35.2645H44.5309C44.4614 35.2645 44.405 35.3217 44.405 35.3923V35.9388C44.405 36.0094 44.4613 36.0667 44.5309 36.0667H45.059C45.1285 36.0667 45.1849 36.0095 45.1849 35.9388V35.9249C45.1849 35.8543 45.1286 35.797 45.059 35.797H44.793C44.7235 35.797 44.6671 35.7399 44.6671 35.6692V35.6553C44.6671 35.5848 44.7234 35.5275 44.793 35.5275H45.3177C45.3872 35.5275 45.4436 35.5847 45.4436 35.6553V35.9388C45.4436 36.0094 45.4999 36.0667 45.5695 36.0667H46.6119C46.6814 36.0667 46.7378 36.0095 46.7378 35.9388V35.3923C46.7378 35.3218 46.6814 35.2645 46.612 35.2645ZM46.0942 35.2645H46.0872C46.0177 35.2645 45.9614 35.3217 45.9614 35.3923V35.3996C45.9614 35.4702 46.0176 35.5274 46.0872 35.5274H46.0942C46.1637 35.5274 46.2201 35.4703 46.2201 35.3996V35.3923C46.22 35.3218 46.1637 35.2645 46.0942 35.2645ZM46.612 36.3361H43.4955C43.426 36.3361 43.3696 36.3932 43.3696 36.4639V36.4779C43.3696 36.5485 43.4259 36.6057 43.4955 36.6057H46.612C46.6815 36.6057 46.7378 36.5486 46.7378 36.4779V36.4639C46.7378 36.3932 46.6814 36.3361 46.612 36.3361ZM43.4955 35.2645H44.0236C44.0931 35.2645 44.1495 35.3217 44.1495 35.3923V35.9388C44.1495 36.0094 44.0932 36.0667 44.0236 36.0667H43.2333C43.1637 36.0667 43.1074 36.1238 43.1074 36.1945V36.478C43.1074 36.5486 43.0511 36.6058 42.9815 36.6058H42.9745C42.905 36.6058 42.8486 36.5487 42.8486 36.478V35.6553C42.8486 35.5848 42.7924 35.5275 42.7228 35.5275H42.7189C42.6494 35.5275 42.5931 35.5847 42.5931 35.6553V36.478C42.5931 36.5486 42.5368 36.6058 42.4672 36.6058H42.4568C42.3873 36.6058 42.3309 36.5487 42.3309 36.478V35.6553C42.3309 35.5848 42.2746 35.5275 42.205 35.5275H42.1979C42.1283 35.5275 42.072 35.5847 42.072 35.6553V36.478C42.072 36.5486 42.0157 36.6058 41.9461 36.6058H41.9391C41.8696 36.6058 41.8132 36.5487 41.8132 36.478V35.3924C41.8132 35.3219 41.8695 35.2646 41.9391 35.2646H42.9815C43.051 35.2646 43.1074 35.3218 43.1074 35.3924V35.6692C43.1074 35.7398 43.1636 35.797 43.2333 35.797H43.7613C43.8308 35.797 43.8872 35.7399 43.8872 35.6692V35.6553C43.8872 35.5848 43.8309 35.5275 43.7613 35.5275H43.4953C43.4258 35.5275 43.3695 35.4704 43.3695 35.3997V35.3924C43.3697 35.3218 43.426 35.2645 43.4955 35.2645Z" fill="#F5F5F5"/>
<path d="M41.4287 35.2645H41.4216C41.3521 35.2645 41.2957 35.3217 41.2957 35.3923V35.6691C41.2957 35.7397 41.2394 35.7969 41.1698 35.7969H40.6451C40.5756 35.7969 40.5192 35.7398 40.5192 35.6691V35.3923C40.5192 35.3218 40.4629 35.2645 40.3933 35.2645H39.3475C39.278 35.2645 39.2216 35.3217 39.2216 35.3923V35.9388C39.2216 36.0094 39.2779 36.0667 39.3475 36.0667H39.8756C39.9451 36.0667 40.0015 36.0095 40.0015 35.9388V35.9249C40.0015 35.8543 39.9452 35.797 39.8756 35.797H39.6064C39.5369 35.797 39.4806 35.7399 39.4806 35.6692V35.6553C39.4806 35.5848 39.5368 35.5275 39.6064 35.5275H40.1312C40.2007 35.5275 40.257 35.5847 40.257 35.6553V35.9388C40.257 36.0094 40.3133 36.0667 40.3829 36.0667H41.4287C41.4982 36.0667 41.5546 36.0095 41.5546 35.9388V35.3923C41.5545 35.3218 41.4982 35.2645 41.4287 35.2645ZM40.9076 35.2645H40.9038C40.8343 35.2645 40.778 35.3217 40.778 35.3923V35.3996C40.778 35.4702 40.8342 35.5274 40.9038 35.5274H40.9076C40.9771 35.5274 41.0335 35.4703 41.0335 35.3996V35.3923C41.0335 35.3218 40.9771 35.2645 40.9076 35.2645ZM41.4287 36.3361H38.3089C38.2394 36.3361 38.1831 36.3932 38.1831 36.4639V36.4779C38.1831 36.5485 38.2393 36.6057 38.3089 36.6057H41.4287C41.4982 36.6057 41.5546 36.5486 41.5546 36.4779V36.4639C41.5545 36.3932 41.4982 36.3361 41.4287 36.3361ZM38.3088 35.2645H38.8369C38.9064 35.2645 38.9628 35.3217 38.9628 35.3923V35.9388C38.9628 36.0094 38.9065 36.0667 38.8369 36.0667H38.0499C37.9804 36.0667 37.9241 36.1238 37.9241 36.1945V36.478C37.9241 36.5486 37.8678 36.6058 37.7982 36.6058H37.7912C37.7217 36.6058 37.6653 36.5487 37.6653 36.478V35.6553C37.6653 35.5848 37.609 35.5275 37.5394 35.5275H37.5323C37.4628 35.5275 37.4064 35.5847 37.4064 35.6553V36.478C37.4064 36.5486 37.3501 36.6058 37.2805 36.6058H37.2735C37.204 36.6058 37.1477 36.5487 37.1477 36.478V35.6553C37.1477 35.5848 37.0914 35.5275 37.0218 35.5275H37.0148C36.9453 35.5275 36.8889 35.5847 36.8889 35.6553V36.478C36.8889 36.5486 36.8326 36.6058 36.763 36.6058H36.7559C36.6864 36.6058 36.63 36.5487 36.63 36.478V35.3924C36.63 35.3219 36.6863 35.2646 36.7559 35.2646H37.7983C37.8678 35.2646 37.9241 35.3218 37.9241 35.3924V35.6692C37.9241 35.7398 37.9804 35.797 38.05 35.797H38.5781C38.6476 35.797 38.704 35.7399 38.704 35.6692V35.6553C38.704 35.5848 38.6477 35.5275 38.5781 35.5275H38.3089C38.2394 35.5275 38.1831 35.4704 38.1831 35.3997V35.3924C38.1831 35.3218 38.2393 35.2645 38.3088 35.2645Z" fill="#F5F5F5"/>
<path d="M36.2454 35.2645H36.2382C36.1687 35.2645 36.1123 35.3217 36.1123 35.3923V35.6691C36.1123 35.7397 36.0561 35.7969 35.9865 35.7969H35.4617C35.3922 35.7969 35.3359 35.7398 35.3359 35.6691V35.3923C35.3359 35.3218 35.2796 35.2645 35.21 35.2645H34.1642C34.0946 35.2645 34.0383 35.3217 34.0383 35.3923V35.9388C34.0383 36.0094 34.0946 36.0667 34.1642 36.0667H34.6891C34.7586 36.0667 34.8149 36.0095 34.8149 35.9388V35.9249C34.8149 35.8543 34.7587 35.797 34.6891 35.797H34.4263C34.3568 35.797 34.3005 35.7399 34.3005 35.6692V35.6553C34.3005 35.5848 34.3567 35.5275 34.4263 35.5275H34.9478C35.0173 35.5275 35.0737 35.5847 35.0737 35.6553V35.9388C35.0737 36.0094 35.13 36.0667 35.1996 36.0667H36.2454C36.3149 36.0667 36.3713 36.0095 36.3713 35.9388V35.3923C36.3713 35.3218 36.3149 35.2645 36.2454 35.2645ZM35.7244 35.2645H35.7206C35.6511 35.2645 35.5947 35.3217 35.5947 35.3923V35.3996C35.5947 35.4702 35.651 35.5274 35.7206 35.5274H35.7244C35.7939 35.5274 35.8503 35.4703 35.8503 35.3996V35.3923C35.8502 35.3218 35.7939 35.2645 35.7244 35.2645ZM36.2454 36.3361H33.1256C33.0561 36.3361 32.9997 36.3932 32.9997 36.4639V36.4779C32.9997 36.5485 33.056 36.6057 33.1256 36.6057H36.2453C36.3148 36.6057 36.3712 36.5486 36.3712 36.4779V36.4639C36.3713 36.3932 36.3149 36.3361 36.2454 36.3361ZM33.1256 35.2645H33.6503C33.7198 35.2645 33.7762 35.3217 33.7762 35.3923V35.9388C33.7762 36.0094 33.7199 36.0667 33.6503 36.0667H32.8668C32.7973 36.0667 32.7409 36.1238 32.7409 36.1945V36.478C32.7409 36.5486 32.6846 36.6058 32.615 36.6058H32.6078C32.5383 36.6058 32.482 36.5487 32.482 36.478V35.6553C32.482 35.5848 32.4257 35.5275 32.3561 35.5275H32.3491C32.2796 35.5275 32.2232 35.5847 32.2232 35.6553V36.478C32.2232 36.5486 32.1669 36.6058 32.0973 36.6058H32.0902C32.0207 36.6058 31.9643 36.5487 31.9643 36.478V35.6553C31.9643 35.5848 31.908 35.5275 31.8384 35.5275H31.8315C31.7619 35.5275 31.7056 35.5847 31.7056 35.6553V36.478C31.7056 36.5486 31.6493 36.6058 31.5797 36.6058H31.5725C31.503 36.6058 31.4467 36.5487 31.4467 36.478V35.3924C31.4467 35.3219 31.5029 35.2646 31.5725 35.2646H32.6152C32.6847 35.2646 32.7411 35.3218 32.7411 35.3924V35.6692C32.7411 35.7398 32.7973 35.797 32.8669 35.797H33.3949C33.4644 35.797 33.5208 35.7399 33.5208 35.6692V35.6553C33.5208 35.5848 33.4645 35.5275 33.3949 35.5275H33.1258C33.0563 35.5275 32.9999 35.4704 32.9999 35.3997V35.3924C32.9997 35.3218 33.0562 35.2645 33.1256 35.2645Z" fill="#F5F5F5"/>
<path d="M31.0621 35.2645H31.055C30.9854 35.2645 30.9291 35.3217 30.9291 35.3923V35.6691C30.9291 35.7397 30.8728 35.7969 30.8032 35.7969H30.2752C30.2057 35.7969 30.1493 35.7398 30.1493 35.6691V35.3923C30.1493 35.3218 30.0931 35.2645 30.0235 35.2645H28.9808C28.9113 35.2645 28.8549 35.3217 28.8549 35.3923V35.9388C28.8549 36.0094 28.9112 36.0667 28.9808 36.0667H29.5057C29.5752 36.0667 29.6316 36.0095 29.6316 35.9388V35.9249C29.6316 35.8543 29.5753 35.797 29.5057 35.797H29.2363C29.1668 35.797 29.1104 35.7399 29.1104 35.6692V35.6553C29.1104 35.5848 29.1667 35.5275 29.2363 35.5275H29.7678C29.8373 35.5275 29.8937 35.5847 29.8937 35.6553V35.9388C29.8937 36.0094 29.95 36.0667 30.0196 36.0667H31.0619C31.1314 36.0667 31.1878 36.0095 31.1878 35.9388V35.3923C31.1879 35.3218 31.1316 35.2645 31.0621 35.2645ZM30.5444 35.2645H30.534C30.4644 35.2645 30.4081 35.3217 30.4081 35.3923V35.3996C30.4081 35.4702 30.4644 35.5274 30.534 35.5274H30.5444C30.6139 35.5274 30.6703 35.4703 30.6703 35.3996V35.3923C30.6703 35.3218 30.6139 35.2645 30.5444 35.2645ZM31.0621 36.3361H27.9424C27.8729 36.3361 27.8165 36.3932 27.8165 36.4639V36.4779C27.8165 36.5485 27.8728 36.6057 27.9424 36.6057H31.0621C31.1316 36.6057 31.188 36.5486 31.188 36.4779V36.4639C31.1879 36.3932 31.1316 36.3361 31.0621 36.3361ZM27.9422 35.2645H28.467C28.5365 35.2645 28.5928 35.3217 28.5928 35.3923V35.9388C28.5928 36.0094 28.5366 36.0667 28.467 36.0667H27.6834C27.6139 36.0667 27.5575 36.1238 27.5575 36.1945V36.478C27.5575 36.5486 27.5013 36.6058 27.4317 36.6058H27.4245C27.355 36.6058 27.2986 36.5487 27.2986 36.478V35.6553C27.2986 35.5848 27.2423 35.5275 27.1727 35.5275H27.1658C27.0962 35.5275 27.0399 35.5847 27.0399 35.6553V36.478C27.0399 36.5486 26.9836 36.6058 26.914 36.6058H26.9068C26.8373 36.6058 26.781 36.5487 26.781 36.478V35.6553C26.781 35.5848 26.7247 35.5275 26.6551 35.5275H26.6447C26.5751 35.5275 26.5188 35.5847 26.5188 35.6553V36.478C26.5188 36.5486 26.4625 36.6058 26.3929 36.6058H26.3892C26.3197 36.6058 26.2633 36.5487 26.2633 36.478V35.3924C26.2633 35.3219 26.3196 35.2646 26.3892 35.2646H27.4316C27.5011 35.2646 27.5574 35.3218 27.5574 35.3924V35.6692C27.5574 35.7398 27.6137 35.797 27.6833 35.797H28.2048C28.2743 35.797 28.3307 35.7399 28.3307 35.6692V35.6553C28.3307 35.5848 28.2744 35.5275 28.2048 35.5275H27.9421C27.8725 35.5275 27.8162 35.4704 27.8162 35.3997V35.3924C27.8164 35.3218 27.8727 35.2645 27.9422 35.2645Z" fill="#F5F5F5"/>
<path d="M25.8755 35.2645H25.8717C25.8022 35.2645 25.7458 35.3217 25.7458 35.3923V35.6691C25.7458 35.7397 25.6895 35.7969 25.6199 35.7969H25.095C25.0255 35.7969 24.9692 35.7398 24.9692 35.6691V35.3923C24.9692 35.3218 24.9129 35.2645 24.8433 35.2645H23.7978C23.7283 35.2645 23.6719 35.3217 23.6719 35.3923V35.9388C23.6719 36.0094 23.7282 36.0667 23.7978 36.0667H24.3191C24.3886 36.0667 24.445 36.0095 24.445 35.9388V35.9249C24.445 35.8543 24.3887 35.797 24.3191 35.797H24.0533C23.9838 35.797 23.9274 35.7399 23.9274 35.6692V35.6553C23.9274 35.5848 23.9837 35.5275 24.0533 35.5275H24.5814C24.6509 35.5275 24.7073 35.5847 24.7073 35.6553V35.9388C24.7073 36.0094 24.7635 36.0667 24.8331 36.0667H25.8758C25.9453 36.0667 26.0017 36.0095 26.0017 35.9388V35.3923C26.0015 35.3218 25.945 35.2645 25.8755 35.2645ZM25.3579 35.2645H25.3507C25.2812 35.2645 25.2248 35.3217 25.2248 35.3923V35.3996C25.2248 35.4702 25.2811 35.5274 25.3507 35.5274H25.3579C25.4274 35.5274 25.4837 35.4703 25.4837 35.3996V35.3923C25.4837 35.3218 25.4274 35.2645 25.3579 35.2645ZM25.8755 36.3361H22.7525C22.6829 36.3361 22.6266 36.3932 22.6266 36.4639V36.4779C22.6266 36.5485 22.6829 36.6057 22.7525 36.6057H25.8756C25.9451 36.6057 26.0015 36.5486 26.0015 36.4779V36.4639C26.0015 36.3932 25.945 36.3361 25.8755 36.3361ZM22.7525 35.2645H23.284C23.3535 35.2645 23.4099 35.3217 23.4099 35.3923V35.9388C23.4099 36.0094 23.3536 36.0667 23.284 36.0667H22.5002C22.4307 36.0667 22.3744 36.1238 22.3744 36.1945V36.478C22.3744 36.5486 22.3181 36.6058 22.2485 36.6058H22.2381C22.1686 36.6058 22.1122 36.5487 22.1122 36.478V35.6553C22.1122 35.5848 22.0559 35.5275 21.9863 35.5275H21.9793C21.9098 35.5275 21.8534 35.5847 21.8534 35.6553V36.478C21.8534 36.5486 21.7972 36.6058 21.7276 36.6058H21.7238C21.6542 36.6058 21.5979 36.5487 21.5979 36.478V35.6553C21.5979 35.5848 21.5416 35.5275 21.472 35.5275H21.4616C21.3921 35.5275 21.3357 35.5847 21.3357 35.6553V36.478C21.3357 36.5486 21.2794 36.6058 21.2098 36.6058H21.2027C21.1332 36.6058 21.0768 36.5487 21.0768 36.478V35.3924C21.0768 35.3219 21.1331 35.2646 21.2027 35.2646H22.2485C22.318 35.2646 22.3744 35.3218 22.3744 35.3924V35.6692C22.3744 35.7398 22.4306 35.797 22.5002 35.797H23.025C23.0945 35.797 23.1508 35.7399 23.1508 35.6692V35.6553C23.1508 35.5848 23.0946 35.5275 23.025 35.5275H22.7526C22.6831 35.5275 22.6268 35.4704 22.6268 35.3997V35.3924C22.6265 35.3218 22.6829 35.2645 22.7525 35.2645Z" fill="#F5F5F5"/>
<path d="M20.6923 35.2645H20.6851C20.6156 35.2645 20.5592 35.3217 20.5592 35.3923V35.6691C20.5592 35.7397 20.503 35.7969 20.4334 35.7969H19.9086C19.8391 35.7969 19.7828 35.7398 19.7828 35.6691V35.3923C19.7828 35.3218 19.7265 35.2645 19.6569 35.2645H18.6112C18.5416 35.2645 18.4853 35.3217 18.4853 35.3923V35.9388C18.4853 36.0094 18.5415 36.0667 18.6112 36.0667H19.1326C19.2021 36.0667 19.2585 36.0095 19.2585 35.9388V35.9249C19.2585 35.8543 19.2022 35.797 19.1326 35.797H18.8666C18.7971 35.797 18.7407 35.7399 18.7407 35.6692V35.6553C18.7407 35.5848 18.797 35.5275 18.8666 35.5275H19.3981C19.4677 35.5275 19.524 35.5847 19.524 35.6553V35.9388C19.524 36.0094 19.5803 36.0667 19.6499 36.0667H20.6923C20.7618 36.0667 20.8182 36.0095 20.8182 35.9388V35.3923C20.8182 35.3218 20.7618 35.2645 20.6923 35.2645ZM20.1746 35.2645H20.1675C20.098 35.2645 20.0416 35.3217 20.0416 35.3923V35.3996C20.0416 35.4702 20.0979 35.5274 20.1675 35.5274H20.1746C20.2441 35.5274 20.3005 35.4703 20.3005 35.3996V35.3923C20.3004 35.3218 20.2441 35.2645 20.1746 35.2645ZM20.6923 36.3361H17.5759C17.5064 36.3361 17.4501 36.3932 17.4501 36.4639V36.4779C17.4501 36.5485 17.5063 36.6057 17.5759 36.6057H20.6924C20.7619 36.6057 20.8183 36.5486 20.8183 36.4779V36.4639C20.8182 36.3932 20.7618 36.3361 20.6923 36.3361ZM17.5759 35.2645H18.1007C18.1702 35.2645 18.2265 35.3217 18.2265 35.3923V35.9388C18.2265 36.0094 18.1703 36.0667 18.1007 36.0667H17.3105C17.241 36.0667 17.1846 36.1238 17.1846 36.1945V36.478C17.1846 36.5486 17.1283 36.6058 17.0587 36.6058H17.0584C16.9889 36.6058 16.9325 36.5487 16.9325 36.478V35.6553C16.9325 35.5848 16.8762 35.5275 16.8066 35.5275H16.7927C16.7231 35.5275 16.6668 35.5847 16.6668 35.6553V36.478C16.6668 36.5486 16.6105 36.6058 16.5409 36.6058H16.5406C16.4711 36.6058 16.4147 36.5487 16.4147 36.478V35.6553C16.4147 35.5848 16.3585 35.5275 16.2889 35.5275H16.2816C16.2121 35.5275 16.1557 35.5847 16.1557 35.6553V36.478C16.1557 36.5486 16.0995 36.6058 16.0299 36.6058H16.0163C15.9468 36.6058 15.8904 36.5487 15.8904 36.478V35.3924C15.8904 35.3219 15.9467 35.2646 16.0163 35.2646H17.0586C17.1281 35.2646 17.1845 35.3218 17.1845 35.3924V35.6692C17.1845 35.7398 17.2408 35.797 17.3104 35.797H17.8418C17.9113 35.797 17.9677 35.7399 17.9677 35.6692V35.6553C17.9677 35.5848 17.9114 35.5275 17.8418 35.5275H17.576C17.5065 35.5275 17.4501 35.4704 17.4501 35.3997V35.3924C17.4501 35.3218 17.5064 35.2645 17.5759 35.2645Z" fill="#F5F5F5"/>
<path d="M56.9786 34.4493H54.9008C54.8313 34.4493 54.7749 34.5065 54.7749 34.5772V34.8607C54.7749 34.9312 54.8312 34.9885 54.9008 34.9885H56.9786C57.0481 34.9885 57.1044 34.9313 57.1044 34.8607V34.5772C57.1044 34.5065 57.048 34.4493 56.9786 34.4493ZM54.3902 34.4493H52.3058C52.2363 34.4493 52.1799 34.5065 52.1799 34.5772V34.8607C52.1799 34.9312 52.2362 34.9885 52.3058 34.9885H54.3902C54.4597 34.9885 54.5161 34.9313 54.5161 34.8607V34.5772C54.5161 34.5065 54.4598 34.4493 54.3902 34.4493Z" fill="#F5F5F5"/>
<path d="M51.7949 34.4493H49.7139C49.6444 34.4493 49.588 34.5065 49.588 34.5772V34.8607C49.588 34.9312 49.6443 34.9885 49.7139 34.9885H51.7949C51.8644 34.9885 51.9208 34.9313 51.9208 34.8607V34.5772C51.9209 34.5065 51.8644 34.4493 51.7949 34.4493ZM49.2034 34.4493H47.1223C47.0528 34.4493 46.9965 34.5065 46.9965 34.5772V34.8607C46.9965 34.9312 47.0527 34.9885 47.1223 34.9885H49.2034C49.2729 34.9885 49.3293 34.9313 49.3293 34.8607V34.5772C49.3293 34.5065 49.2728 34.4493 49.2034 34.4493Z" fill="#F5F5F5"/>
<path d="M46.612 34.4493H44.531C44.4614 34.4493 44.4051 34.5065 44.4051 34.5772V34.8607C44.4051 34.9312 44.4614 34.9885 44.531 34.9885H46.612C46.6815 34.9885 46.7379 34.9313 46.7379 34.8607V34.5772C46.7378 34.5065 46.6814 34.4493 46.612 34.4493ZM44.0236 34.4493H41.9392C41.8697 34.4493 41.8134 34.5065 41.8134 34.5772V34.8607C41.8134 34.9312 41.8696 34.9885 41.9392 34.9885H44.0236C44.0931 34.9885 44.1495 34.9313 44.1495 34.8607V34.5772C44.1495 34.5065 44.0932 34.4493 44.0236 34.4493Z" fill="#F5F5F5"/>
<path d="M41.4287 34.4493H39.3475C39.278 34.4493 39.2216 34.5065 39.2216 34.5772V34.8607C39.2216 34.9312 39.2779 34.9885 39.3475 34.9885H41.4287C41.4982 34.9885 41.5546 34.9313 41.5546 34.8607V34.5772C41.5545 34.5065 41.4982 34.4493 41.4287 34.4493ZM38.8371 34.4493H36.7559C36.6864 34.4493 36.63 34.5065 36.63 34.5772V34.8607C36.63 34.9312 36.6863 34.9885 36.7559 34.9885H38.8371C38.9066 34.9885 38.963 34.9313 38.963 34.8607V34.5772C38.9629 34.5065 38.9066 34.4493 38.8371 34.4493Z" fill="#F5F5F5"/>
<path d="M36.2454 34.4493H34.1642C34.0946 34.4493 34.0383 34.5065 34.0383 34.5772V34.8607C34.0383 34.9312 34.0946 34.9885 34.1642 34.9885H36.2454C36.3149 34.9885 36.3713 34.9313 36.3713 34.8607V34.5772C36.3713 34.5065 36.3149 34.4493 36.2454 34.4493ZM33.6503 34.4493H31.5725C31.503 34.4493 31.4467 34.5065 31.4467 34.5772V34.8607C31.4467 34.9312 31.5029 34.9885 31.5725 34.9885H33.6503C33.7198 34.9885 33.7762 34.9313 33.7762 34.8607V34.5772C33.7762 34.5065 33.7198 34.4493 33.6503 34.4493Z" fill="#F5F5F5"/>
<path d="M31.0621 34.4493H28.9809C28.9114 34.4493 28.855 34.5065 28.855 34.5772V34.8607C28.855 34.9312 28.9113 34.9885 28.9809 34.9885H31.0621C31.1316 34.9885 31.188 34.9313 31.188 34.8607V34.5772C31.1879 34.5065 31.1316 34.4493 31.0621 34.4493ZM28.467 34.4493H26.3894C26.3199 34.4493 26.2635 34.5065 26.2635 34.5772V34.8607C26.2635 34.9312 26.3198 34.9885 26.3894 34.9885H28.467C28.5365 34.9885 28.5929 34.9313 28.5929 34.8607V34.5772C28.5928 34.5065 28.5365 34.4493 28.467 34.4493Z" fill="#F5F5F5"/>
<path d="M25.8755 34.4493H23.7978C23.7283 34.4493 23.6719 34.5065 23.6719 34.5772V34.8607C23.6719 34.9312 23.7282 34.9885 23.7978 34.9885H25.8756C25.9451 34.9885 26.0015 34.9313 26.0015 34.8607V34.5772C26.0015 34.5065 25.945 34.4493 25.8755 34.4493ZM23.2839 34.4493H21.2027C21.1332 34.4493 21.0768 34.5065 21.0768 34.5772V34.8607C21.0768 34.9312 21.1331 34.9885 21.2027 34.9885H23.2839C23.3534 34.9885 23.4098 34.9313 23.4098 34.8607V34.5772C23.4098 34.5065 23.3534 34.4493 23.2839 34.4493Z" fill="#F5F5F5"/>
<path d="M20.6923 34.4493H18.6112C18.5416 34.4493 18.4853 34.5065 18.4853 34.5772V34.8607C18.4853 34.9312 18.5415 34.9885 18.6112 34.9885H20.6924C20.7619 34.9885 20.8183 34.9313 20.8183 34.8607V34.5772C20.8182 34.5065 20.7618 34.4493 20.6923 34.4493ZM18.1006 34.4493H16.0163C15.9467 34.4493 15.8904 34.5065 15.8904 34.5772V34.8607C15.8904 34.9312 15.9467 34.9885 16.0163 34.9885H18.1007C18.1702 34.9885 18.2265 34.9313 18.2265 34.8607V34.5772C18.2265 34.5065 18.1702 34.4493 18.1006 34.4493Z" fill="#F5F5F5"/>
<path d="M38.429 25.7358C38.6662 25.8 38.9196 25.7292 39.0936 25.5493C39.3562 25.8193 39.7866 25.8258 40.0589 25.5623C40.2361 25.3888 40.3089 25.1252 40.2456 24.8875C40.0146 25.2667 39.5273 25.3888 39.1539 25.1509C39.1348 25.1379 39.1096 25.1251 39.0938 25.1123C38.7426 25.3757 38.2458 25.305 37.9799 24.9517C37.9703 24.9323 37.9514 24.9066 37.9387 24.8875C37.8436 25.2604 38.0651 25.6458 38.429 25.7358Z" fill="#FF4B55"/>
<path d="M39.9032 33.2432C40.7538 32.769 41.4637 32.0219 41.8529 31.0378C42.5157 29.3511 42.0983 27.4473 40.8304 26.2124C40.7868 26.1699 40.7205 26.2267 40.7521 26.279C42.0027 28.3497 41.5101 31.0708 39.5749 32.5619L39.6674 26.5469C39.6687 26.4652 39.6328 26.3875 39.5704 26.336L39.2556 26.0777C39.1592 25.9986 39.0215 25.9991 38.9256 26.0787L38.6155 26.336C38.5536 26.3874 38.5182 26.4647 38.5195 26.5458L38.6094 32.5651C36.674 31.0747 36.1803 28.3512 37.4289 26.2791C37.4604 26.2268 37.3942 26.17 37.3507 26.2126C36.0852 27.4474 35.6651 29.3512 36.3279 31.0378C36.7171 32.0217 37.4269 32.7689 38.2778 33.2431C37.7363 33.4315 37.1672 33.5315 36.5917 33.5147C36.5309 33.513 36.5187 33.5998 36.5769 33.6177C37.3081 33.843 38.0601 33.8585 38.7672 33.6976L39.0448 34.2444C39.064 34.2822 39.1172 34.2823 39.1365 34.2445L39.416 33.6978C40.123 33.8585 40.8753 33.8428 41.607 33.6174C41.6652 33.5996 41.6531 33.5127 41.5923 33.5144C41.0161 33.5315 40.4456 33.4315 39.9032 33.2432Z" fill="#FF4B55"/>
<path d="M43.3655 27.6504C42.9301 26.8246 42.2071 26.1986 41.3465 25.8919C41.2925 25.8726 41.2505 25.945 41.2945 25.9819C43.1946 27.5711 43.5755 30.4017 42.1062 32.451C42.0301 32.5539 41.9479 32.6631 41.8687 32.7529C43.6726 31.7697 44.3403 29.482 43.3655 27.6504Z" fill="#FF4B55"/>
<path d="M36.0778 32.4509C34.6084 30.4016 34.9863 27.5711 36.886 25.9818C36.9301 25.9448 36.888 25.8727 36.834 25.8918C35.9745 26.1986 35.2564 26.8245 34.8183 27.6503C33.8373 29.4819 34.5114 31.7696 36.3183 32.7527C36.2329 32.6629 36.1506 32.5537 36.0778 32.4509Z" fill="#FF4B55"/>
</g>
</svg>
