<svg width="30" height="30" viewBox="0 0 30 30" fill="none" xmlns="http://www.w3.org/2000/svg">
<g opacity="0.5">
<circle cx="15" cy="15" r="15" fill="#6E7C83"/>
<path d="M23.25 7H6.75V23.5H23.25V7Z" fill="#ECEFF1"/>
<path d="M15 16.9852L23.25 23.5V10.6382L15 16.9852Z" fill="#CFD8DC"/>
<path d="M23.9375 7H23.25L15 13.5148L6.75 7H6.0625C4.924 7 4 7.924 4 9.0625V21.4375C4 22.576 4.924 23.5 6.0625 23.5H6.75V10.6382L15 16.9839L23.25 10.6369V23.5H23.9375C25.076 23.5 26 22.576 26 21.4375V9.0625C26 7.924 25.076 7 23.9375 7Z" fill="#F44336"/>
</g>
</svg>
