<svg width="24" height="24" viewBox="0 0 24 24" fill="none" xmlns="http://www.w3.org/2000/svg">
<g clip-path="url(#clip0_2652_48184)">
<path d="M9.93801 14.0619C7.64725 11.7711 7.13001 9.48037 7.01332 8.56258C6.98071 8.3088 7.06804 8.05431 7.24959 7.87402L9.10339 6.02106C9.37608 5.74853 9.42447 5.32381 9.22008 4.99692L6.26849 0.413749C6.04236 0.0517829 5.57805 -0.0788543 5.19635 0.112094L0.458009 2.34368C0.149344 2.49567 -0.032209 2.82362 0.00283653 3.16589C0.251112 5.52451 1.27939 11.3226 6.97732 17.0209C12.6752 22.7193 18.4725 23.7471 20.8324 23.9954C21.1746 24.0304 21.5026 23.8489 21.6546 23.5402L23.8861 18.8019C24.0764 18.421 23.9466 17.9579 23.5861 17.7314L19.003 14.7806C18.6763 14.576 18.2516 14.6241 17.9788 14.8965L16.1259 16.7503C15.9456 16.9319 15.6911 17.0192 15.4373 16.9866C14.5195 16.8699 12.2288 16.3526 9.93801 14.0619Z" fill="#F2F5FA"/>
<path d="M19.0346 12.8276C18.5775 12.8276 18.207 12.4571 18.207 12C18.2031 8.57364 15.4264 5.79699 12.0001 5.79311C11.543 5.79311 11.1725 5.42259 11.1725 4.96553C11.1725 4.50846 11.543 4.13794 12.0001 4.13794C16.3402 4.14273 19.8574 7.65989 19.8621 12C19.8621 12.4571 19.4916 12.8276 19.0346 12.8276Z" fill="#F2F5FA"/>
<path d="M23.1725 12.8276C22.7154 12.8276 22.3449 12.4571 22.3449 12C22.3385 6.28936 17.7107 1.66156 12.0001 1.65517C11.543 1.65517 11.1725 1.28465 11.1725 0.827586C11.1725 0.370523 11.543 0 12.0001 0C18.6245 0.0072976 23.9928 5.37561 24.0001 12C24.0001 12.2195 23.9129 12.43 23.7577 12.5852C23.6025 12.7404 23.392 12.8276 23.1725 12.8276Z" fill="#F2F5FA"/>
</g>
<defs>
<clipPath id="clip0_2652_48184">
<rect width="24" height="24" fill="white"/>
</clipPath>
</defs>
</svg>
