<svg width="30" height="30" viewBox="0 0 30 30" fill="none" xmlns="http://www.w3.org/2000/svg">
<g opacity="0.5">
<path fill-rule="evenodd" clip-rule="evenodd" d="M15 30C23.2843 30 30 23.2843 30 15C30 6.71573 23.2843 0 15 0C6.71573 0 0 6.71573 0 15C0 23.2843 6.71573 30 15 30ZM21.7345 7.96609C23.1288 9.22114 23.9018 11.996 23.3797 16.3912C22.9228 20.269 20.3085 20.9558 19.431 21.1864C19.3449 21.209 19.2755 21.2272 19.2266 21.2436C18.9896 21.3224 16.9039 21.862 14.1881 21.6265L13.9179 21.9496C12.5356 23.6033 12.2974 23.8883 11.8057 23.7289C11.3491 23.5853 11.3761 22.8706 11.3761 22.8706L11.3798 21.1065H11.3761C7.40826 19.9514 7.46368 15.6933 7.51035 13.4202C7.55703 11.1478 7.98291 9.31229 9.19201 8.06162C11.8844 5.50485 19.4847 5.82208 21.7352 7.96536L21.7345 7.96609ZM12.2024 23.085C12.7369 22.5286 14.4558 20.3853 14.4558 20.3853C16.7588 20.5392 18.5928 20.0673 18.7905 20.0017C18.8365 19.9864 18.9029 19.9704 18.9856 19.9504L18.9856 19.9504C19.733 19.7699 21.8098 19.2685 22.1939 16.0681C22.1935 16.0522 22.1991 15.9958 22.2081 15.905C22.2995 14.9846 22.7419 10.5276 20.8528 8.85286C19.1551 7.25725 12.4919 6.76209 10.1298 8.97684C9.10596 10.0233 8.75884 11.5774 8.72237 13.4749L8.71819 13.6764C8.67649 15.6177 8.60316 19.0307 11.8516 19.9616C11.8516 19.9616 11.8385 22.6547 11.8385 22.8903C11.8356 23.2491 12.0274 23.2659 12.2024 23.085ZM15.4068 9.83466C15.126 9.83102 15.126 9.39346 15.4068 9.39346C17.8425 9.41024 19.8013 11.1502 19.8246 14.1511H19.8253C19.829 14.445 19.3987 14.4487 19.3987 14.1548C19.379 11.3697 17.585 9.85144 15.4068 9.83466ZM18.272 13.693C18.2654 13.9833 18.6949 13.9971 18.6986 13.7032C18.7343 12.0486 17.7141 10.6856 15.7969 10.5419C15.5161 10.5215 15.4869 10.9627 15.767 10.9831C17.4297 11.1093 18.3055 12.244 18.272 13.693ZM16.9338 15.7014C17.0855 15.4965 17.4523 15.3667 17.8125 15.5753C18.2982 15.8589 18.9166 16.3001 19.3265 16.6998C19.5576 16.8945 19.6102 17.192 19.4519 17.5063V17.5114C19.0953 18.1612 18.4273 18.8788 17.7403 18.6498L17.7338 18.6396C17.0366 18.4376 15.3943 17.5625 14.3566 16.7085C12.5313 15.216 11.7414 13.3243 11.3095 12.2898L11.3094 12.2897C11.2188 12.0727 11.144 11.8934 11.0786 11.7634C10.8576 11.0524 11.5482 10.3618 12.179 9.99281H12.1856C12.489 9.82873 12.7807 9.88342 12.9747 10.1263C13.02 10.1898 13.0762 10.258 13.1431 10.3393L13.1431 10.3393C13.3482 10.5885 13.6543 10.9605 14.0612 11.6956C14.2632 12.0683 14.1378 12.4475 13.9395 12.605L13.5427 12.9332C13.3415 13.1002 13.3684 13.4116 13.3684 13.4116C13.3684 13.4116 13.9562 15.7116 16.1542 16.2928C16.1542 16.2928 16.4554 16.3206 16.6166 16.112L16.9338 15.7014ZM16.0973 12.1696C16.7981 12.2104 17.138 12.5765 17.1744 13.3284C17.1875 13.6223 17.6142 13.6018 17.601 13.3079C17.5544 12.3264 17.0424 11.7794 16.1207 11.7284C15.8399 11.7116 15.8136 12.1528 16.0973 12.1696Z" fill="#665CAC"/>
</g>
</svg>
