<svg width="30" height="30" viewBox="0 0 30 30" fill="none" xmlns="http://www.w3.org/2000/svg">
<g opacity="0.5">
<path d="M15 0C6.717 0 0 6.717 0 15C0 23.283 6.717 30 15 30C23.283 30 30 23.283 30 15C30 6.717 23.283 0 15 0ZM15.3179 23.7334C15.3177 23.7334 15.3181 23.7334 15.3179 23.7334H15.3143C13.8116 23.7328 12.3351 23.356 11.0239 22.641L6.26472 23.8891L7.53845 19.2382C6.7527 17.8773 6.33934 16.3332 6.34003 14.7514C6.34209 9.80301 10.3695 5.77721 15.3179 5.77721C17.7193 5.77812 19.9736 6.71288 21.6685 8.40912C23.3636 10.1056 24.2965 12.3605 24.2956 14.7585C24.2935 19.7072 20.2657 23.7334 15.3179 23.7334Z" fill="#25D366"/>
<path d="M15.3209 7.29309C11.2049 7.29309 7.85751 10.6391 7.85568 14.7521C7.85523 16.1616 8.24982 17.5342 8.99666 18.7218L9.17404 19.0041L8.42011 21.7568L11.2443 21.0162L11.5169 21.1777C12.6624 21.8575 13.9758 22.2171 15.3147 22.2176H15.3177C19.4305 22.2176 22.7779 18.8713 22.7797 14.7581C22.7804 12.7647 22.0049 10.8907 20.5962 9.48074C19.1874 8.07083 17.3138 7.29378 15.3209 7.29309ZM19.7099 17.9592C19.5229 18.4829 18.6269 18.961 18.1959 19.0256C17.8093 19.0833 17.3204 19.1073 16.783 18.9368C16.4571 18.8333 16.0394 18.6953 15.504 18.4644C13.2539 17.493 11.7842 15.228 11.6721 15.0783C11.5599 14.9286 10.7561 13.8622 10.7561 12.7583C10.7561 11.6547 11.3356 11.112 11.5411 10.8877C11.7469 10.6631 11.99 10.6071 12.1394 10.6071C12.2889 10.6071 12.4386 10.6084 12.5693 10.6149C12.7071 10.6217 12.892 10.5624 13.074 10.9998C13.261 11.4489 13.7096 12.5526 13.7656 12.6647C13.8217 12.7771 13.859 12.908 13.7844 13.0577C13.7096 13.2074 13.461 13.5303 13.2237 13.8247C13.1241 13.9481 12.9943 14.0579 13.1252 14.2825C13.2559 14.5068 13.7064 15.2412 14.3731 15.8359C15.23 16.5999 15.9528 16.8365 16.1771 16.9489C16.4012 17.0611 16.5321 17.0423 16.6631 16.8929C16.7938 16.7432 17.2238 16.238 17.3733 16.0135C17.5227 15.789 17.6724 15.8265 17.878 15.9013C18.0837 15.976 19.1865 16.5186 19.4108 16.6308C19.6351 16.7432 19.7846 16.7992 19.8406 16.8929C19.8969 16.9865 19.8969 17.4353 19.7099 17.9592Z" fill="#25D366"/>
</g>
</svg>
